<svg width="100" height="100" viewBox="0 0 100 100" fill="none" xmlns="http://www.w3.org/2000/svg">
<path d="M100 30.4598C100 29.6102 99.7518 28.7946 99.2824 28.101C98.7693 27.343 98.0277 26.7854 97.1377 26.4887L52.0633 11.4653C50.7336 11.0219 49.2688 11.0221 47.9389 11.4653L2.8623 26.4889C1.97246 26.7856 1.23066 27.343 0.717578 28.1012C0.248242 28.7946 0 29.6102 0 30.4598C0 31.3094 0.248047 32.125 0.717383 32.8186C1.23047 33.5768 1.97207 34.1342 2.86211 34.4309L13.0416 37.824V70.9268C13.0416 72.2608 13.4432 73.5453 14.2029 74.6416C14.9627 75.7379 16.0246 76.5651 17.2736 77.0334L47.7109 88.4471C48.4494 88.724 49.225 88.8623 50.001 88.8623C50.7768 88.8623 51.5527 88.7239 52.291 88.4469L82.7256 77.0334C83.9746 76.5651 85.0363 75.7379 85.7961 74.6414C86.5559 73.5451 86.9576 72.2606 86.9576 70.9266V37.8242L95.6518 34.9262V52.1998C95.6518 53.4006 96.625 54.3739 97.8258 54.3739C99.0266 54.3739 99.9998 53.4006 99.9998 52.1998V30.4742C99.9998 30.4696 100 30.4647 100 30.4598ZM82.6096 70.927C82.6096 71.8281 82.0426 72.6461 81.1988 72.9625L50.7643 84.376C50.2721 84.5606 49.7299 84.5606 49.2377 84.376L18.8004 72.9623C17.9566 72.6459 17.3896 71.828 17.3896 70.9268V39.2735L47.9375 49.4561C48.6025 49.6778 49.3012 49.7885 49.9998 49.7885C50.6986 49.7885 51.3973 49.6778 52.0623 49.4561L82.6096 39.2737V70.927ZM50.6875 45.3311C50.2441 45.4789 49.7559 45.4789 49.3125 45.3311L4.69902 30.4598L49.3137 15.5903C49.757 15.4426 50.2453 15.4426 50.6885 15.5903L95.301 30.46L50.6875 45.3311Z" fill="white"/>
<rect x="50" y="28" width="46" height="4.5" rx="2.25" fill="white"/>
</svg>
