<svg width="100" height="100" viewBox="0 0 100 100" fill="none" xmlns="http://www.w3.org/2000/svg">
<path d="M86.3639 95.4545H84.091V81.4316C85.0389 81.0975 85.9078 80.5527 86.6395 79.8211C87.9274 78.5332 88.6365 76.8211 88.6365 74.9998L88.6361 6.81816C88.6361 3.05859 85.5773 0 81.818 0H22.727C19.6916 0 16.8379 1.18203 14.6916 3.32832C12.5453 5.47461 11.3633 8.32832 11.3633 11.3637V88.6361C11.3633 91.6715 12.5453 94.5252 14.6916 96.6715C16.8379 98.818 19.6916 100 22.727 100H86.3639C87.6191 100 88.6365 98.9824 88.6365 97.7273C88.6367 96.4721 87.6191 95.4545 86.3639 95.4545ZM15.9088 11.3637C15.9088 7.6041 18.9674 4.54551 22.727 4.54551H81.8178C83.0711 4.54551 84.0906 5.56504 84.0906 6.81816L84.091 74.9996C84.091 75.6066 83.8547 76.1773 83.4254 76.6066C82.9961 77.0359 82.4254 77.2725 81.8184 77.2725H22.727C20.2348 77.2725 17.865 78.0693 15.9088 79.5424V11.3637ZM15.9088 88.6363C15.9088 84.8768 18.9674 81.8182 22.727 81.8182H79.5455V95.4547H22.727C18.9674 95.4545 15.9088 92.3959 15.9088 88.6363Z" fill="white"/>
<path d="M31.8156 45.4516H68.1799C69.4352 45.4516 70.4525 44.434 70.4525 43.1789C70.4525 41.9238 69.435 40.9062 68.1799 40.9062H31.8156C30.5604 40.9062 29.543 41.9238 29.543 43.1789C29.543 44.434 30.5604 45.4516 31.8156 45.4516Z" fill="white"/>
<path d="M31.8156 31.8188H68.1799C69.4352 31.8188 70.4525 30.8012 70.4525 29.5461C70.4525 28.2908 69.435 27.2734 68.1799 27.2734H31.8156C30.5604 27.2734 29.543 28.291 29.543 29.5461C29.5428 30.8012 30.5604 31.8188 31.8156 31.8188Z" fill="white"/>
</svg>
