<svg width="100" height="100" viewBox="0 0 100 100" fill="none" xmlns="http://www.w3.org/2000/svg">
<path d="M92.241 7.75904C88.5277 4.04576 83.5904 2 78.3392 2C73.088 2 68.1517 4.0448 64.4384 7.75904L57.5044 14.6931C57.5015 14.695 57.4986 14.697 57.4967 14.6989C57.4948 14.7008 57.4928 14.7037 57.4909 14.7066L11.6337 60.5629C11.6001 60.5965 11.5761 60.6358 11.5454 60.6714C11.4916 60.7318 11.4388 60.7933 11.3908 60.8595C11.3399 60.9296 11.2948 61.0026 11.2526 61.0784C11.2209 61.136 11.1892 61.1917 11.1614 61.2522C11.1172 61.3472 11.0817 61.4442 11.051 61.544C11.0414 61.5747 11.025 61.6026 11.0164 61.6342L2.0817 94.9789C1.85994 95.8074 2.09706 96.6906 2.70282 97.2973C3.15978 97.7533 3.77226 98 4.40009 98C4.60745 98 4.81577 97.9731 5.02121 97.9184L20.9332 93.655C21.1358 93.6262 21.3345 93.5773 21.5255 93.4966L38.3658 88.9846C38.4013 88.975 38.4321 88.9578 38.4676 88.9462C38.5607 88.9165 38.6519 88.8838 38.7412 88.8426C38.8074 88.8128 38.8698 88.7782 38.9322 88.7427C39.0004 88.7034 39.0676 88.663 39.1319 88.616C39.2068 88.5632 39.2749 88.5046 39.3431 88.4442C39.3729 88.4163 39.4074 88.3962 39.4362 88.3674L92.241 35.5645C95.9552 31.8493 98 26.912 98 21.6608C98 16.4096 95.9552 11.4723 92.241 7.75904ZM88.8474 11.1536C91.6544 13.9597 93.2 17.6922 93.2 21.6608C93.2 24.8173 92.2083 27.8144 90.3968 30.3248L69.6752 9.6032C72.1856 7.79168 75.1827 6.8 78.3392 6.8C82.3079 6.8 86.0403 8.34656 88.8474 11.1536ZM83.6039 37.4125L62.5876 16.3962L66.1338 12.8499L87.1501 33.8662L83.6039 37.4125ZM21.2894 88.5901L11.41 78.7117L14.5425 67.0208L32.9802 85.4566L21.2894 88.5901ZM37.6621 83.3523L16.6468 62.3379L59.194 19.7907L80.2103 40.807L37.6621 83.3523ZM9.97577 84.0646L15.9354 90.0243L7.79369 92.2054L9.97577 84.0646Z" fill="white"/>
<rect x="2" y="94" width="98" height="4" rx="2" fill="white"/>
</svg>
