<svg width="100" height="100" viewBox="0 0 100 100" fill="none" xmlns="http://www.w3.org/2000/svg">
<path d="M50.0021 13.0437C51.2027 13.0437 52.1762 12.0705 52.1762 10.8697V2.17402C52.1762 0.973242 51.2027 0 50.0021 0C48.8016 0 47.8281 0.973242 47.8281 2.17402V10.8697C47.8281 12.0703 48.8016 13.0437 50.0021 13.0437Z" fill="white"/>
<path d="M25.977 20.4045C26.4071 20.917 27.0231 21.1811 27.6434 21.1811C28.1365 21.1811 28.6324 21.0141 29.0397 20.6725C29.9594 19.9008 30.0793 18.5295 29.3076 17.6098L23.7182 10.9485C22.9463 10.0287 21.5752 9.90881 20.6555 10.6805C19.7358 11.4522 19.6158 12.8235 20.3875 13.7432L25.977 20.4045Z" fill="white"/>
<path d="M15.7482 41.7882C16.7834 41.7882 17.7006 41.0461 17.8867 39.9914C18.0951 38.809 17.3056 37.6814 16.1232 37.473L7.55954 35.9631C6.37712 35.7547 5.24958 36.5441 5.04118 37.7265C4.83278 38.909 5.62223 40.0365 6.80466 40.2449L15.3683 41.7548C15.4959 41.7775 15.6228 41.7882 15.7482 41.7882Z" fill="white"/>
<path d="M18.7899 61.1587L11.2592 65.5066C10.2194 66.107 9.86315 67.4365 10.4635 68.4763C10.8663 69.1738 11.5969 69.5636 12.3483 69.5636C12.7171 69.5636 13.0909 69.4697 13.4333 69.272L20.9639 64.9242C22.0038 64.3238 22.36 62.9943 21.7596 61.9544C21.1592 60.9148 19.8298 60.5585 18.7899 61.1587Z" fill="white"/>
<path d="M88.7413 65.5067L81.2106 61.1589C80.1708 60.5585 78.8413 60.9147 78.2409 61.9546C77.6405 62.9944 77.9967 64.3239 79.0366 64.9243L86.5673 69.2721C86.9096 69.4698 87.2835 69.5637 87.6522 69.5637C88.4036 69.5637 89.1342 69.1739 89.537 68.4764C90.1374 67.4366 89.7811 66.1071 88.7413 65.5067Z" fill="white"/>
<path d="M94.957 37.7265C94.7484 36.5441 93.6207 35.7548 92.4386 35.963L83.875 37.473C82.6926 37.6816 81.9031 38.8089 82.1115 39.9913C82.2974 41.046 83.2146 41.7882 84.2498 41.7882C84.3752 41.7882 84.5021 41.7773 84.6299 41.7548L93.1935 40.2448C94.3759 40.0364 95.1654 38.9089 94.957 37.7265Z" fill="white"/>
<path d="M70.9602 20.6726C71.3674 21.0144 71.8633 21.1812 72.3565 21.1812C72.9768 21.1812 73.593 20.9169 74.0229 20.4046L79.6123 13.7433C80.384 12.8235 80.2641 11.4523 79.3444 10.6806C78.4246 9.9087 77.0533 10.0288 76.2817 10.9485L70.6922 17.6099C69.9205 18.5296 70.0404 19.9009 70.9602 20.6726Z" fill="white"/>
<path d="M75.4267 33.295C73.6341 29.6114 71.0007 26.2944 67.8113 23.703C66.231 22.419 64.5101 21.3048 62.6964 20.3915C60.8503 19.4618 58.8992 18.7358 56.8968 18.2337C52.6769 17.1753 48.3124 17.104 43.9242 18.0216C38.7261 19.1085 34.0058 21.5762 30.2732 25.1581C26.5271 28.7532 23.8789 33.3733 22.6146 38.519C21.1685 44.405 21.5253 50.3989 23.6466 55.8526C24.6503 58.4333 26.0306 60.8511 27.749 63.0387C29.4496 65.204 31.4529 67.1079 33.7033 68.6975C34.3896 69.1825 34.7833 69.8679 34.7833 70.5776V73.9085C32.3859 73.9085 30.4355 75.8589 30.4355 78.2563V84.7782C30.4355 86.8317 30.838 88.8249 31.6322 90.7022C32.3988 92.5147 33.4957 94.1419 34.8925 95.5387C36.2894 96.9356 37.9166 98.0325 39.7291 98.7991C41.6066 99.5932 43.5998 99.996 45.6531 99.996H54.349C56.4025 99.996 58.3956 99.5932 60.2732 98.7991C62.0855 98.0325 63.7128 96.9356 65.1095 95.5387C66.5064 94.1419 67.6033 92.5147 68.3699 90.7022C69.164 88.8247 69.5666 86.8315 69.5666 84.7782V78.2563C69.5666 75.8589 67.6162 73.9085 65.2187 73.9085V70.5141C65.2187 69.8124 65.6076 69.1352 66.2857 68.6565C69.9052 66.1009 72.9123 62.6985 74.9814 58.8171C76.04 56.8311 76.8562 54.7212 77.407 52.5456C77.9746 50.3034 78.2625 47.9823 78.2625 45.6471C78.2625 41.3175 77.3083 37.1616 75.4267 33.295ZM65.2187 84.7786C65.2187 90.7721 60.3425 95.6483 54.349 95.6483H45.6531C39.6595 95.6483 34.7833 90.7721 34.7833 84.7786V78.2567H65.2187V84.7786ZM63.7779 65.105C62.9117 65.7165 62.19 66.5106 61.691 67.4012C61.1544 68.3589 60.8708 69.4352 60.8708 70.5143V73.9087H39.1312V70.5778C39.1312 69.4948 38.8462 68.4139 38.307 67.452C37.8056 66.5579 37.0812 65.7606 36.2121 65.1466C28.105 59.419 24.4251 49.3745 26.8371 39.5565C28.9968 30.7653 35.8853 24.1444 44.814 22.2774C52.0662 20.761 59.449 22.5106 65.0695 27.0774C70.6906 31.6448 73.9144 38.4132 73.9144 45.6471C73.9144 53.3497 70.1251 60.6235 63.7779 65.105Z" fill="white"/>
<rect x="48" y="52" width="4" height="24" rx="2" fill="white"/>
</svg>
