<svg width="120" height="116" viewBox="0 0 120 116" fill="none" xmlns="http://www.w3.org/2000/svg">
<g clip-path="url(#clip0_29325_110208)">
<path d="M42.2481 40.2046H9.75098V7.71875H42.2369V40.2046H42.2481ZM14.2933 35.6736H37.7171V12.2498H14.2933V35.6736Z" fill="#263238"/>
<path d="M32.4295 17.5312H19.582V30.3787H32.4295V17.5312Z" fill="#263238"/>
<path d="M42.2481 108.205H9.75098V75.7188H42.2369V108.205H42.2481ZM14.2933 103.662H37.7171V80.2385H14.2933V103.662Z" fill="#263238"/>
<path d="M32.4295 85.5312H19.582V98.3787H32.4295V85.5312Z" fill="#263238"/>
<path d="M110.237 40.2046H77.751V7.71875H110.237V40.2046ZM82.2821 35.6736H105.706V12.2498H82.2821V35.6736Z" fill="#263238"/>
<path d="M100.621 17.3281H87.3672V30.5824H100.621V17.3281Z" fill="#263238"/>
<path d="M52.4405 9.98438H47.3896V15.0352H52.4405V9.98438Z" fill="#263238"/>
<path d="M57.4796 15.0234H52.4287V20.0743H57.4796V15.0234Z" fill="#263238"/>
<path d="M62.5313 15.0234H57.4805V20.0743H62.5313V15.0234Z" fill="#263238"/>
<path d="M57.4796 20.0703H52.4287V25.1212H57.4796V20.0703Z" fill="#263238"/>
<path d="M52.4405 30.1797H47.3896V35.2305H52.4405V30.1797Z" fill="#263238"/>
<path d="M57.4796 30.1797H52.4287V35.2305H57.4796V30.1797Z" fill="#263238"/>
<path d="M62.5313 30.1797H57.4805V35.2305H62.5313V30.1797Z" fill="#263238"/>
<path d="M67.5821 30.1797H62.5312V35.2305H67.5821V30.1797Z" fill="#263238"/>
<path d="M67.5821 25.125H62.5312V30.1758H67.5821V25.125Z" fill="#263238"/>
<path d="M72.6319 20.0703H67.5811V25.1212H72.6319V20.0703Z" fill="#263238"/>
<path d="M67.5821 9.98438H62.5312V15.0352H67.5821V9.98438Z" fill="#263238"/>
<path d="M72.6319 15.0234H67.5811V20.0743H72.6319V15.0234Z" fill="#263238"/>
<path d="M72.6319 30.1797H67.5811V35.2305H72.6319V30.1797Z" fill="#263238"/>
<path d="M72.6319 35.2344H67.5811V40.2852H72.6319V35.2344Z" fill="#263238"/>
<path d="M47.3897 45.3203H42.3389V50.3712H47.3897V45.3203Z" fill="#263238"/>
<path d="M42.3389 45.3203H37.2881V50.3712H42.3389V45.3203Z" fill="#263238"/>
<path d="M37.2882 45.3203H32.2373V50.3712H37.2882V45.3203Z" fill="#263238"/>
<path d="M27.1973 45.3203H22.1465V50.3712H27.1973V45.3203Z" fill="#263238"/>
<path d="M17.0958 45.3203H12.0449V50.3712H17.0958V45.3203Z" fill="#263238"/>
<path d="M27.1973 60.4688H22.1465V65.5196H27.1973V60.4688Z" fill="#263238"/>
<path d="M27.1973 65.5156H22.1465V70.5665H27.1973V65.5156Z" fill="#263238"/>
<path d="M32.2364 65.5156H27.1855V70.5665H32.2364V65.5156Z" fill="#263238"/>
<path d="M37.2882 65.5156H32.2373V70.5665H37.2882V65.5156Z" fill="#263238"/>
<path d="M42.3389 65.5156H37.2881V70.5665H42.3389V65.5156Z" fill="#263238"/>
<path d="M42.3389 60.4688H37.2881V65.5196H42.3389V60.4688Z" fill="#263238"/>
<path d="M42.3389 55.4219H37.2881V60.4727H42.3389V55.4219Z" fill="#263238"/>
<path d="M47.3897 55.4219H42.3389V60.4727H47.3897V55.4219Z" fill="#263238"/>
<path d="M52.4405 65.5156H47.3896V70.5665H52.4405V65.5156Z" fill="#263238"/>
<path d="M52.4405 60.4688H47.3896V65.5196H52.4405V60.4688Z" fill="#263238"/>
<path d="M57.4796 60.4688H52.4287V65.5196H57.4796V60.4688Z" fill="#263238"/>
<path d="M62.5313 60.4688H57.4805V65.5196H62.5313V60.4688Z" fill="#263238"/>
<path d="M67.5821 60.4688H62.5312V65.5196H67.5821V60.4688Z" fill="#263238"/>
<path d="M72.6319 65.5156H67.5811V70.5665H72.6319V65.5156Z" fill="#263238"/>
<path d="M72.6319 70.5625H67.5811V75.6133H72.6319V70.5625Z" fill="#263238"/>
<path d="M77.6837 75.6172H72.6328V80.668H77.6837V75.6172Z" fill="#263238"/>
<path d="M47.3897 65.5156H42.3389V70.5665H47.3897V65.5156Z" fill="#263238"/>
<path d="M22.1466 60.4688H17.0957V65.5196H22.1466V60.4688Z" fill="#263238"/>
<path d="M32.2364 50.3672H27.1855V55.418H32.2364V50.3672Z" fill="#263238"/>
<path d="M32.2364 55.4219H27.1855V60.4727H32.2364V55.4219Z" fill="#263238"/>
<path d="M27.1973 55.4219H22.1465V60.4727H27.1973V55.4219Z" fill="#263238"/>
<path d="M22.1466 55.4219H17.0957V60.4727H22.1466V55.4219Z" fill="#263238"/>
<path d="M22.1466 50.3672H17.0957V55.418H22.1466V50.3672Z" fill="#263238"/>
<path d="M17.0958 55.4219H12.0449V60.4727H17.0958V55.4219Z" fill="#263238"/>
<path d="M52.4405 25.125H47.3896V30.1758H52.4405V25.125Z" fill="#263238"/>
<path d="M52.4405 35.2344H47.3896V40.2852H52.4405V35.2344Z" fill="#263238"/>
<path d="M52.4405 40.2812H47.3896V45.3321H52.4405V40.2812Z" fill="#263238"/>
<path d="M52.4405 45.3203H47.3896V50.3712H52.4405V45.3203Z" fill="#263238"/>
<path d="M52.4405 50.3672H47.3896V55.418H52.4405V50.3672Z" fill="#263238"/>
<path d="M57.4796 50.3672H52.4287V55.418H57.4796V50.3672Z" fill="#263238"/>
<path d="M62.5313 50.3672H57.4805V55.418H62.5313V50.3672Z" fill="#263238"/>
<path d="M67.5821 50.3672H62.5312V55.418H67.5821V50.3672Z" fill="#263238"/>
<path d="M62.5313 45.3203H57.4805V50.3712H62.5313V45.3203Z" fill="#263238"/>
<path d="M72.6319 45.3203H67.5811V50.3712H72.6319V45.3203Z" fill="#263238"/>
<path d="M77.6837 45.3203H72.6328V50.3712H77.6837V45.3203Z" fill="#263238"/>
<path d="M82.7344 45.3203H77.6836V50.3712H82.7344V45.3203Z" fill="#263238"/>
<path d="M87.7735 45.3203H82.7227V50.3712H87.7735V45.3203Z" fill="#263238"/>
<path d="M92.8243 45.3203H87.7734V50.3712H92.8243V45.3203Z" fill="#263238"/>
<path d="M97.8751 45.3203H92.8242V50.3712H97.8751V45.3203Z" fill="#263238"/>
<path d="M97.8751 50.3672H92.8242V55.418H97.8751V50.3672Z" fill="#263238"/>
<path d="M82.7344 55.4219H77.6836V60.4727H82.7344V55.4219Z" fill="#263238"/>
<path d="M77.6837 55.4219H72.6328V60.4727H77.6837V55.4219Z" fill="#263238"/>
<path d="M77.6837 50.3672H72.6328V55.418H77.6837V50.3672Z" fill="#263238"/>
<path d="M72.6319 55.4219H67.5811V60.4727H72.6319V55.4219Z" fill="#263238"/>
<path d="M92.8243 60.4688H87.7734V65.5196H92.8243V60.4688Z" fill="#263238"/>
<path d="M92.8243 65.5156H87.7734V70.5665H92.8243V65.5156Z" fill="#263238"/>
<path d="M97.8751 65.5156H92.8242V70.5665H97.8751V65.5156Z" fill="#263238"/>
<path d="M102.927 65.5156H97.876V70.5665H102.927V65.5156Z" fill="#263238"/>
<path d="M102.927 70.5625H97.876V75.6133H102.927V70.5625Z" fill="#263238"/>
<path d="M102.927 75.6172H97.876V80.668H102.927V75.6172Z" fill="#263238"/>
<path d="M92.8243 80.6641H87.7734V85.7149H92.8243V80.6641Z" fill="#263238"/>
<path d="M92.8243 95.8516H87.7734V100.902H92.8243V95.8516Z" fill="#263238"/>
<path d="M107.978 80.6641H102.927V85.7149H107.978V80.6641Z" fill="#263238"/>
<path d="M107.978 100.859H102.927V105.91H107.978V100.859Z" fill="#263238"/>
<path d="M87.7735 100.859H82.7227V105.91H87.7735V100.859Z" fill="#263238"/>
<path d="M82.7344 100.859H77.6836V105.91H82.7344V100.859Z" fill="#263238"/>
<path d="M77.6837 100.859H72.6328V105.91H77.6837V100.859Z" fill="#263238"/>
<path d="M72.6319 100.859H67.5811V105.91H72.6319V100.859Z" fill="#263238"/>
<path d="M77.6837 95.8125H72.6328V100.863H77.6837V95.8125Z" fill="#263238"/>
<path d="M72.6319 95.8125H67.5811V100.863H72.6319V95.8125Z" fill="#263238"/>
<path d="M77.6837 90.7656H72.6328V95.8165H77.6837V90.7656Z" fill="#263238"/>
<path d="M77.6837 85.7188H72.6328V90.7696H77.6837V85.7188Z" fill="#263238"/>
<path d="M72.6319 80.6641H67.5811V85.7149H72.6319V80.6641Z" fill="#263238"/>
<path d="M67.5821 80.6641H62.5312V85.7149H67.5821V80.6641Z" fill="#263238"/>
<path d="M62.5313 80.6641H57.4805V85.7149H62.5313V80.6641Z" fill="#263238"/>
<path d="M57.4796 80.6641H52.4287V85.7149H57.4796V80.6641Z" fill="#263238"/>
<path d="M67.5821 85.7188H62.5312V90.7696H67.5821V85.7188Z" fill="#263238"/>
<path d="M62.5313 85.7188H57.4805V90.7696H62.5313V85.7188Z" fill="#263238"/>
<path d="M52.4405 95.8125H47.3896V100.863H52.4405V95.8125Z" fill="#263238"/>
<path d="M52.4405 75.6172H47.3896V80.668H52.4405V75.6172Z" fill="#263238"/>
<path d="M57.4796 85.7188H52.4287V90.7696H57.4796V85.7188Z" fill="#263238"/>
<path d="M62.5313 90.7656H57.4805V95.8165H62.5313V90.7656Z" fill="#263238"/>
<path d="M57.4796 90.7656H52.4287V95.8165H57.4796V90.7656Z" fill="#263238"/>
<path d="M62.5313 95.8125H57.4805V100.863H62.5313V95.8125Z" fill="#263238"/>
<path d="M57.4796 100.859H52.4287V105.91H57.4796V100.859Z" fill="#263238"/>
<path d="M67.5821 75.6172H62.5312V80.668H67.5821V75.6172Z" fill="#263238"/>
<path d="M62.5313 75.6172H57.4805V80.668H62.5313V75.6172Z" fill="#263238"/>
<path d="M57.4796 75.6172H52.4287V80.668H57.4796V75.6172Z" fill="#263238"/>
<path d="M62.5313 70.5625H57.4805V75.6133H62.5313V70.5625Z" fill="#263238"/>
<path d="M62.5313 65.5156H57.4805V70.5665H62.5313V65.5156Z" fill="#263238"/>
<path d="M57.4796 70.5625H52.4287V75.6133H57.4796V70.5625Z" fill="#263238"/>
<path d="M52.4405 80.6641H47.3896V85.7149H52.4405V80.6641Z" fill="#263238"/>
<path d="M72.6319 90.7656H67.5811V95.8165H72.6319V90.7656Z" fill="#263238"/>
<path d="M67.5821 100.859H62.5312V105.91H67.5821V100.859Z" fill="#263238"/>
<path d="M82.7344 80.6641H77.6836V85.7149H82.7344V80.6641Z" fill="#263238"/>
<path d="M87.7735 85.7188H82.7227V90.7696H87.7735V85.7188Z" fill="#263238"/>
<path d="M102.927 85.7188H97.876V90.7696H102.927V85.7188Z" fill="#263238"/>
<path d="M102.927 90.7656H97.876V95.8165H102.927V90.7656Z" fill="#263238"/>
<path d="M97.8751 90.7656H92.8242V95.8165H97.8751V90.7656Z" fill="#263238"/>
<path d="M92.8243 90.7656H87.7734V95.8165H92.8243V90.7656Z" fill="#263238"/>
<path d="M87.7735 90.7656H82.7227V95.8165H87.7735V90.7656Z" fill="#263238"/>
<path d="M102.927 95.8125H97.876V100.863H102.927V95.8125Z" fill="#263238"/>
<path d="M102.927 100.859H97.876V105.91H102.927V100.859Z" fill="#263238"/>
<path d="M92.8243 70.5625H87.7734V75.6133H92.8243V70.5625Z" fill="#263238"/>
<path d="M87.7735 60.4688H82.7227V65.5196H87.7735V60.4688Z" fill="#263238"/>
<path d="M87.7735 65.5156H82.7227V70.5665H87.7735V65.5156Z" fill="#263238"/>
<path d="M87.7735 70.5625H82.7227V75.6133H87.7735V70.5625Z" fill="#263238"/>
<path d="M82.7344 75.6172H77.6836V80.668H82.7344V75.6172Z" fill="#263238"/>
<path d="M82.7344 65.5156H77.6836V70.5665H82.7344V65.5156Z" fill="#263238"/>
<path d="M82.7344 70.5625H77.6836V75.6133H82.7344V70.5625Z" fill="#263238"/>
<path d="M92.8243 55.4219H87.7734V60.4727H92.8243V55.4219Z" fill="#263238"/>
<path d="M92.8243 75.6172H87.7734V80.668H92.8243V75.6172Z" fill="#263238"/>
<path d="M97.8751 75.6172H92.8242V80.668H97.8751V75.6172Z" fill="#263238"/>
<path d="M102.927 50.3672H97.876V55.418H102.927V50.3672Z" fill="#263238"/>
<path d="M102.927 55.4219H97.876V60.4727H102.927V55.4219Z" fill="#263238"/>
<path d="M107.978 45.3203H102.927V50.3712H107.978V45.3203Z" fill="#263238"/>
<path d="M107.978 60.4688H102.927V65.5196H107.978V60.4688Z" fill="#263238"/>
<path d="M62.5313 40.2812H57.4805V45.3321H62.5313V40.2812Z" fill="#263238"/>
<path d="M67.5821 40.2812H62.5312V45.3321H67.5821V40.2812Z" fill="#263238"/>
<path d="M4.16949 17.2768H0V0H17.2768V4.16949H4.16949V17.2768Z" fill="#5E63B6"/>
<path d="M17.2768 115.921H0V98.6328H4.16949V111.74H17.2768V115.921Z" fill="#5E63B6"/>
<path d="M120 115.921H102.712V111.74H115.819V98.6328H120V115.921Z" fill="#5E63B6"/>
<path d="M120 17.2768H115.819V4.16949H102.712V0H120V17.2768Z" fill="#5E63B6"/>
</g>
<defs>
<clipPath id="clip0_29325_110208">
<rect width="120" height="115.921" fill="white"/>
</clipPath>
</defs>
</svg>
