<svg width="133" height="133" viewBox="0 0 133 133" fill="none" xmlns="http://www.w3.org/2000/svg">
<path d="M132.464 66.1896C132.464 102.745 102.83 132.379 66.2749 132.379C29.7199 132.379 0.0859375 102.745 0.0859375 66.1896C0.0859375 29.6346 29.7199 0.000595093 66.2749 0.000595093C102.83 0.000595093 132.464 29.6346 132.464 66.1896Z" fill="#C8A776"/>
<g clip-path="url(#clip0_2071_32)">
<path d="M76.2179 29.2627C73.3947 27.2634 69.5301 26.0972 65.3228 26C65.3228 26 64.7061 26 64.6924 26C60.4851 26.0972 56.6067 27.2634 53.7973 29.2627C50.7001 31.4564 49.0007 34.5803 49.0007 38.0374C49.0007 43.4383 51.8787 48.6032 53.6054 51.1995C54.6881 52.8239 55.9078 54.3789 57.059 55.5591C57.5935 56.1144 58.0457 56.517 58.4157 56.8086L57.8812 99.4325C57.8812 102.543 61.0059 104.986 65.0076 104.986C69.0093 104.986 72.1339 102.543 72.1339 99.4186L71.5994 56.8086C71.9832 56.517 72.4354 56.1144 72.9562 55.5591C74.1074 54.3789 75.3271 52.8239 76.4097 51.1995C78.1228 48.6032 81.0144 43.4383 81.0144 38.0374C81.0144 34.5664 79.3151 31.4564 76.2316 29.2627H76.2179ZM65.0076 101.918C62.5956 101.918 60.9099 100.613 60.9099 99.4603L61.3485 63.8617H68.6667L69.1052 99.4464C69.1052 100.613 67.4196 101.918 65.0076 101.918ZM61.3896 60.7933L61.4307 57.6139H68.5845L68.6256 60.7933H61.3896ZM69.6397 54.4761L71.8598 49.2279C72.1887 48.4504 71.8324 47.548 71.065 47.2148C70.2975 46.8815 69.4067 47.2425 69.0778 48.02C69.0778 48.02 66.3369 54.5177 66.3232 54.5455H63.6782L60.9236 48.02C60.5947 47.2425 59.7039 46.8815 58.9365 47.2148C58.169 47.548 57.8127 48.4504 58.1416 49.2279L60.3618 54.4761C58.6624 53.2821 52.0157 45.5487 52.0157 38.0513C52.0157 34.9274 53.9206 32.9281 55.5104 31.7896C57.8401 30.1374 61.1155 29.1656 64.7335 29.0822H65.2543C68.8723 29.1656 72.1339 30.1236 74.4774 31.7896C76.0671 32.9281 77.972 34.9274 77.972 38.0513C77.972 45.5487 71.3391 53.2821 69.626 54.4761H69.6397Z" fill="white"/>
</g>
<defs>
<clipPath id="clip0_2071_32">
<rect width="32" height="79" fill="white" transform="translate(49 26)"/>
</clipPath>
</defs>
</svg>
