<svg width="133" height="133" viewBox="0 0 133 133" fill="none" xmlns="http://www.w3.org/2000/svg">
<path d="M132.401 66.1896C132.401 102.745 102.767 132.379 66.2124 132.379C29.6574 132.379 0.0234375 102.745 0.0234375 66.1896C0.0234375 29.6346 29.6574 0.000595093 66.2124 0.000595093C102.767 0.000595093 132.401 29.6346 132.401 66.1896Z" fill="#C8A776"/>
<g clip-path="url(#clip0_2071_31)">
<path d="M45.1021 54.5974C45.1021 42.5538 54.9178 32.7735 66.9924 32.7735C67.9837 32.7735 68.78 33.5818 68.78 34.5679C68.78 35.554 67.9837 36.3623 66.9924 36.3623C56.9004 36.3623 48.6936 44.5422 48.6936 54.6135C48.6936 55.5997 47.8973 56.4079 46.906 56.4079C45.9146 56.4079 45.1183 55.5997 45.1183 54.6135L45.1021 54.5974ZM111.001 54.5974C111.001 57.9599 108.254 60.7081 104.874 60.7081C103.801 60.7081 102.794 60.4332 101.916 59.9483C99.5597 75.2573 87.2901 87.3494 71.8677 89.4833V107.411H78.8232C79.8145 107.411 80.6108 108.219 80.6108 109.206C80.6108 110.192 79.8145 111 78.8232 111H55.1615C54.1702 111 53.3739 110.192 53.3739 109.206C53.3739 108.219 54.1702 107.411 55.1615 107.411H62.117V89.4833C46.6947 87.3494 34.4251 75.2573 32.0686 59.9483C31.1911 60.4332 30.1835 60.7081 29.1109 60.7081C25.7307 60.7081 22.9843 57.9599 22.9843 54.5974C22.9843 51.2349 25.7307 48.4867 29.1109 48.4867C31.8736 48.4867 34.1976 50.3134 34.9776 52.803H38.3741C39.3167 37.8657 51.7976 26 67.0086 26C82.2197 26 94.7006 37.8657 95.6269 52.803H99.0234C99.7872 50.2973 102.127 48.4867 104.89 48.4867C108.27 48.4867 111.017 51.2349 111.017 54.5974H111.001ZM31.6624 54.5974C31.6624 53.2071 30.5248 52.0593 29.1272 52.0593C27.7296 52.0593 26.592 53.1909 26.592 54.5974C26.592 56.0038 27.7296 57.1354 29.1272 57.1354C30.5248 57.1354 31.6624 56.0038 31.6624 54.5974ZM41.9168 54.5974C41.9168 68.3868 53.1789 79.6059 67.0086 79.6059C80.8384 79.6059 92.1004 68.3868 92.1004 54.5974C92.1004 40.8079 80.8384 29.5888 67.0086 29.5888C53.1789 29.5888 41.9168 40.8079 41.9168 54.5974ZM68.2925 89.7904C67.8699 89.7904 67.4312 89.8227 67.0086 89.8227C66.5861 89.8227 66.1473 89.8227 65.7248 89.7904V107.411H68.2925V89.7904ZM98.6984 56.3756H95.6269C94.7006 71.3129 82.2197 83.1786 67.0086 83.1786C51.7976 83.1786 39.3167 71.3129 38.3903 56.3756H35.3189C36.2452 72.9941 50.1074 86.2339 67.0086 86.2339C83.9098 86.2339 97.7721 72.9941 98.6984 56.3756ZM107.409 54.5974C107.409 53.2071 106.271 52.0593 104.874 52.0593C103.476 52.0593 102.339 53.1909 102.339 54.5974C102.339 56.0038 103.476 57.1354 104.874 57.1354C106.271 57.1354 107.409 56.0038 107.409 54.5974Z" fill="white"/>
</g>
<defs>
<clipPath id="clip0_2071_31">
<rect width="88" height="85" fill="white" transform="translate(23 26)"/>
</clipPath>
</defs>
</svg>
