<svg width="133" height="133" viewBox="0 0 133 133" fill="none" xmlns="http://www.w3.org/2000/svg">
<path d="M132.378 66.2462C132.378 102.801 102.744 132.435 66.189 132.435C29.634 132.435 0 102.801 0 66.2462C0 29.6912 29.634 0.0572357 66.189 0.0572357C102.744 0.0572357 132.378 29.6912 132.378 66.2462Z" fill="#C8A776"/>
<g clip-path="url(#clip0_2071_33)">
<path d="M90.4886 45.765C89.8787 40.4195 87.0526 35.4749 82.5309 31.8221C77.8902 28.0653 71.8364 26.0013 65.5 26.0013C59.1636 26.0013 53.1247 28.0653 48.4691 31.8221C43.9325 35.4897 41.1213 40.4195 40.5114 45.765C35.8261 50.7394 33 57.1392 33 64.0884C33 72.8343 37.4176 80.9715 45.1373 86.4507C47.0858 98.1663 55.4748 107.001 65.5149 107.001C75.5549 107.001 83.9439 98.1663 85.8925 86.4507C93.6121 80.9715 98.0298 72.8492 98.0298 64.0884C98.0298 57.1243 95.2037 50.7394 90.5183 45.765H90.4886ZM86.2941 81.9366C86.2941 81.7139 86.2941 81.4912 86.2941 81.2536C86.2941 74.5271 84.1968 68.3797 80.7609 63.7914C83.3787 60.6287 84.8066 56.9016 84.8066 53.1449C84.8066 49.3881 83.3192 45.5275 80.6716 42.3795C89.0904 46.849 94.7128 54.897 94.7128 64.0736C94.7128 70.8298 91.6785 77.185 86.2792 81.9218L86.2941 81.9366ZM44.7059 81.9366C39.3066 77.1999 36.2723 70.8446 36.2723 64.0884C36.2723 50.086 49.3764 38.6822 65.4851 38.6822C67.2254 38.6822 68.9359 38.8158 70.6018 39.0683C77.3398 41.9935 81.5046 47.3687 81.5046 53.1449C81.5046 56.0107 80.4931 58.7874 78.5595 61.2672C74.9897 57.6738 70.4233 55.5207 65.4703 55.5207C54.0023 55.5207 44.6762 67.0582 44.6762 81.2536C44.6762 81.4763 44.6762 81.699 44.6762 81.9366H44.7059ZM44.8398 41.9638C47.7998 34.5839 56.0252 29.2829 65.5 29.2829C74.9748 29.2829 83.2002 34.5691 86.1602 41.9638C81.9954 38.9346 75.1979 35.4006 65.5 35.4006C57.6613 35.4006 50.4622 37.8655 44.8398 41.9638ZM76.1201 85.3964C72.9371 85.3964 70.349 82.7979 70.349 79.6202C70.349 76.4426 72.9371 73.8441 76.1201 73.8441C79.3032 73.8441 81.8913 76.4426 81.8913 79.6202C81.8913 82.7979 79.3032 85.3964 76.1201 85.3964ZM54.8799 85.3964C51.6968 85.3964 49.1087 82.7979 49.1087 79.6202C49.1087 76.4426 51.6968 73.8441 54.8799 73.8441C58.0629 73.8441 60.651 76.4426 60.651 79.6202C60.651 82.7979 58.0629 85.3964 54.8799 85.3964ZM54.8799 88.678C59.8776 88.678 63.9382 84.6094 63.9382 79.6202C63.9382 74.631 59.8776 70.5625 54.8799 70.5625C52.8272 70.5625 50.9382 71.2455 49.4211 72.4037C52.1133 64.4299 58.3009 58.8171 65.5 58.8171C75.1384 58.8171 80.6121 69.5082 81.5789 72.4037C80.0618 71.2455 78.1579 70.5625 76.1201 70.5625C71.1224 70.5625 67.0618 74.631 67.0618 79.6202C67.0618 84.6094 71.1224 88.678 76.1201 88.678C78.6785 88.678 80.984 87.6089 82.635 85.9013C80.9542 96.0578 73.9188 103.705 65.5 103.705C57.0812 103.705 50.0458 96.0578 48.365 85.9013C50.016 87.6089 52.3215 88.678 54.8799 88.678ZM58.9405 93.9493C58.4943 93.1623 58.7769 92.1526 59.5652 91.7071C60.3535 91.2617 61.3501 91.5438 61.7963 92.3308C62.5549 93.6672 63.968 94.4987 65.4851 94.4987C67.0023 94.4987 68.4302 93.6672 69.1739 92.3308C69.6201 91.5438 70.6167 91.2617 71.405 91.7071C72.1934 92.1526 72.476 93.1623 72.0297 93.9493C70.6911 96.3102 68.1773 97.7803 65.4703 97.7803C62.7632 97.7803 60.2494 96.3102 58.9108 93.9493H58.9405ZM57.8844 79.6202C57.8844 80.526 57.1556 81.2684 56.2483 81.2684H53.5412C52.6339 81.2684 51.905 80.526 51.905 79.6202C51.905 78.7145 52.6339 77.972 53.5412 77.972H56.2483C57.1556 77.972 57.8844 78.7145 57.8844 79.6202ZM79.1098 79.6202C79.1098 80.526 78.381 81.2684 77.4737 81.2684H74.7666C73.8593 81.2684 73.1304 80.526 73.1304 79.6202C73.1304 78.7145 73.8593 77.972 74.7666 77.972H77.4737C78.381 77.972 79.1098 78.7145 79.1098 79.6202Z" fill="white"/>
</g>
<defs>
<clipPath id="clip0_2071_33">
<rect width="65" height="81" fill="white" transform="translate(33 26)"/>
</clipPath>
</defs>
</svg>
