<svg width="85" height="77" viewBox="0 0 85 77" fill="none" xmlns="http://www.w3.org/2000/svg">
<path d="M77.5774 62.6829C77.1434 62.6829 76.695 62.2534 76.695 61.8238C76.695 43.0678 60.7687 27.3185 41.9204 27.3185C23.0721 27.3185 7.16027 42.4951 7.16027 61.2511V61.8238C7.16027 62.2534 6.72632 62.6829 6.27789 62.6829C5.82947 62.6829 5.39551 62.2534 5.39551 61.8238V61.2511C5.39551 51.8015 9.19988 42.7815 16.2011 36.0522C23.0721 29.3229 32.272 25.6003 41.9059 25.6003C51.5398 25.6003 60.7542 29.4661 67.6252 36.4817C70.9812 39.7748 73.6139 43.7837 75.5088 48.079C77.4038 52.5174 78.4308 57.2422 78.4308 61.967C78.4308 62.2534 77.9968 62.6829 77.5484 62.6829H77.5774Z" fill="#515151"/>
<path d="M41.9204 27.1753C37.2481 27.1753 33.4437 23.4527 33.4437 18.8711C33.4437 14.2895 37.2481 10.5669 41.9204 10.5669C46.5927 10.5669 50.3971 14.2895 50.3971 18.8711C50.3971 23.4527 46.5927 27.1753 41.9204 27.1753ZM41.9204 12.5714C38.2751 12.5714 35.3531 15.4349 35.3531 19.0143C35.3531 22.5937 38.2751 25.4572 41.9204 25.4572C45.5656 25.4572 48.4876 22.5937 48.4876 19.0143C48.4876 15.4349 45.5656 12.5714 41.9204 12.5714Z" fill="#515151"/>
<path d="M82.973 69.8417H0.882383C0.448424 69.8417 0 69.4122 0 68.9826V61.8238C0 61.3943 0.433959 60.9648 0.882383 60.9648H83.1321C83.566 60.9648 84.0145 61.3943 84.0145 61.8238V68.9826C84.0145 69.4122 83.5805 69.8417 82.9874 69.8417H82.973ZM1.7503 67.9804H82.105V62.5397H1.7503V67.9804Z" fill="#515151"/>
<path d="M26.4426 17.8688C26.1533 17.8688 25.7193 17.7257 25.5602 17.4393C25.2709 17.0098 25.5602 16.4371 25.9941 16.2939C28.9161 14.8621 29.2054 13.7167 27.3105 8.41922C25.2709 2.40584 29.5092 0.258197 29.6539 0.115021C30.0878 -0.171331 30.6809 0.115021 30.8255 0.544549C31.1149 0.974077 30.8256 1.54678 30.3916 1.68996C30.2469 1.68996 27.4696 3.26489 29.0752 7.70334C30.8256 13.0009 31.2595 15.578 26.7319 17.7257C26.7319 17.8688 26.5872 17.8688 26.4426 17.8688Z" fill="#515151"/>
<path d="M55.6625 23.3096C55.3732 23.3096 54.9393 23.1664 54.7802 22.88C54.4908 22.4505 54.7801 21.8778 55.2141 21.7346C58.1361 20.3029 58.4254 19.1575 56.5305 13.86C54.4908 7.84657 58.7147 5.69893 58.8738 5.55576C59.3078 5.2694 59.9009 5.55576 60.0455 5.98528C60.3348 6.41481 60.0455 6.98752 59.6116 7.13069C59.4669 7.13069 56.6896 8.70563 58.2952 13.1441C60.0455 18.4416 60.4795 21.0188 55.9518 23.1664C55.9518 23.3096 55.8072 23.3096 55.6625 23.3096Z" fill="#515151"/>
<path d="M64.7177 53.6628C64.2837 53.6628 63.9944 53.3765 63.8353 52.9469C60.3347 41.0633 46.3034 35.6227 46.1587 35.6227C45.7248 35.4795 45.4355 34.9068 45.5801 34.4773C45.7248 34.0477 46.3034 33.7614 46.7518 33.9046C46.8965 33.9046 50.5562 35.3363 54.78 38.1998C60.3347 42.0656 64.1246 47.0767 65.5856 52.3742C65.7303 52.8038 65.441 53.3765 65.007 53.5197C64.9106 53.6151 64.8141 53.6628 64.7177 53.6628Z" fill="#515151"/>
<path d="M40.4739 55.5241H7.5943C7.16034 55.5241 6.71191 55.0946 6.71191 54.6651C6.71191 54.2356 7.14587 53.806 7.5943 53.806H40.4595C40.8934 53.806 41.3418 54.2356 41.3418 54.6651C41.3418 55.0946 40.9079 55.5241 40.4595 55.5241H40.4739Z" fill="#515151"/>
<path d="M79.3277 77.0005H2.63263C2.19867 77.0005 1.75024 76.571 1.75024 76.1415C1.75024 75.7119 2.1842 75.2824 2.63263 75.2824H79.3277C79.7616 75.2824 80.21 75.7119 80.21 76.1415C80.3547 76.571 79.9207 77.0005 79.3277 77.0005Z" fill="#515151"/>
</svg>
