<svg width="78" height="88" viewBox="0 0 78 88" fill="none" xmlns="http://www.w3.org/2000/svg">
<g clip-path="url(#clip0_2077_104)">
<path d="M41.7839 87.2236H25.7702C22.4606 87.2236 19.8577 84.9828 19.1509 81.88H5.91249C4.34387 81.88 2.77525 81.1905 1.74099 80.1562C0.689503 79.122 0 77.5706 0 76.0192C0 72.7441 2.60287 70.1584 5.91249 70.1584H16.8756C17.3927 70.1584 17.9271 70.6756 17.9271 71.1927C17.9271 71.7098 17.4099 72.227 16.8756 72.227H5.91249C3.82674 72.227 2.08575 73.9507 2.08575 76.0192C2.08575 77.0535 2.4305 77.9154 3.13724 78.6049C3.82674 79.2944 4.87823 79.6391 5.74011 79.6391H19.8404C20.3576 79.6391 20.8919 80.1562 20.8919 80.6734C20.8919 83.0866 22.9777 84.9828 25.4254 84.9828H41.4391C43.8696 84.9828 45.9726 83.0866 45.9726 80.6734C45.9726 80.1562 46.4897 79.6391 47.0241 79.6391H60.6073C62.693 79.6391 64.434 77.9154 64.434 75.8468C64.434 74.8126 64.0893 73.9507 63.3825 73.2612C62.693 72.5717 61.6415 72.227 60.7797 72.227H50.6785C50.1613 72.227 49.627 71.7098 49.627 71.1927C49.627 70.6756 50.1441 70.1584 50.6785 70.1584H60.7797C62.3483 70.1584 63.9169 70.848 64.9512 71.8822C66.0027 72.9165 66.6922 74.4678 66.6922 76.0192C66.6922 79.2944 64.0893 81.88 60.7797 81.88H48.0756C47.7308 84.9828 45.1107 87.2236 41.8011 87.2236H41.7839Z" fill="#515151"/>
<path d="M60.7625 56.0236H59.9006C59.3835 56.0236 58.8491 55.5065 58.8491 54.9894C58.8491 54.4723 59.3662 53.9551 59.9006 53.9551H60.7625C66.5026 53.9551 71.898 51.0247 74.8628 46.1982C75.5523 45.164 75.7247 44.1297 75.7247 42.9231C75.7247 39.9927 73.2942 36.7176 69.4502 36.7176H63.0034C62.4862 36.7176 61.9519 36.2004 61.9519 35.6833C61.9519 35.1662 62.469 34.649 63.0034 34.649H69.4502C74.1561 34.649 77.9828 38.4413 77.9828 43.0955C77.9828 44.6468 77.6381 46.0258 76.759 47.4049C73.277 52.5761 67.1921 56.0236 60.7453 56.0236H60.7625Z" fill="#515151"/>
<path d="M38.6467 37.7518H5.05064C4.53351 37.7518 3.99915 37.2347 3.99915 36.7175C3.99915 36.2004 4.51627 35.6833 5.05064 35.6833H38.819C39.3362 35.6833 39.8705 36.2004 39.8705 36.7175C39.8705 37.2347 39.3534 37.7518 38.6467 37.7518Z" fill="#515151"/>
<path d="M51.7127 46.3706H5.74009C5.22296 46.3706 4.6886 45.8534 4.6886 45.3363C4.6886 44.8192 5.20573 44.3021 5.74009 44.3021H51.6955C52.2126 44.3021 52.7469 44.8192 52.7469 45.3363C52.7469 45.8534 52.4022 46.3706 51.6955 46.3706H51.7127Z" fill="#515151"/>
<path d="M51.006 72.227H17.0652C16.7205 72.227 16.3757 72.0546 16.2033 71.8822C10.4632 65.5043 6.44687 56.0236 4.70587 45.5087C4.18875 41.8888 3.84399 38.2689 3.84399 34.4767C3.84399 32.0634 4.01637 29.4778 4.18875 27.0645C4.18875 26.5474 4.70587 26.0303 5.24024 26.0303H62.5207C63.0378 26.0303 63.5722 26.375 63.5722 27.0645C63.7445 29.4778 63.9169 32.0634 63.9169 34.4767V35.6833C63.7446 42.5783 62.6931 49.301 60.7797 55.3341C58.6939 61.8844 55.5567 67.5728 51.73 71.8822C51.5576 72.0546 51.2128 72.227 51.0405 72.227H51.006ZM17.41 69.9861H50.3165C53.7985 66.0214 56.7633 60.6778 58.6767 54.6446C60.5901 48.7839 61.6416 42.406 61.8139 35.6833V34.6491C61.8139 32.5806 61.6416 30.512 61.4692 28.4435H6.27449C6.10212 30.512 5.92974 32.5806 5.92974 34.6491C5.92974 38.2689 6.27449 41.8888 6.79162 45.3364C8.36024 54.9894 12.187 63.7805 17.41 69.9861Z" fill="#515151"/>
<path d="M53.9709 21.5485H17.41C14.6175 21.5485 12.5317 19.3076 12.5317 16.722C12.5317 15.5153 13.0489 14.1363 13.928 13.2745C14.7899 12.4126 16.0137 11.8954 17.41 11.8954H39.1638C40.7324 11.8954 41.9563 10.6888 41.9563 9.13744C41.9563 8.44794 41.6115 7.75843 41.0944 7.24131C40.5773 6.72418 39.8705 6.37943 39.181 6.37943H32.0447C29.0798 6.37943 26.6493 3.96617 26.6493 1.03578C26.6493 0.518653 27.1664 0.00152588 27.7008 0.00152588C28.2352 0.00152588 28.7523 0.518653 28.7523 1.03578C28.7523 2.75954 30.1485 4.31092 32.0619 4.31092H39.1983C40.5945 4.31092 41.8011 4.82805 42.6802 5.68992C43.5594 6.5518 44.0765 7.75843 44.0765 9.13744C44.0765 11.8954 41.8184 13.964 39.1983 13.964H17.4444C16.7549 13.964 16.0482 14.3087 15.5311 14.8258C15.0139 15.343 14.6692 16.0325 14.6692 16.722C14.6692 18.2734 15.8931 19.48 17.4617 19.48H53.8502C54.3673 19.48 54.9017 19.9971 54.9017 20.5142C55.0741 21.0314 54.5569 21.5485 54.0398 21.5485H53.9709Z" fill="#515151"/>
</g>
<defs>
<clipPath id="clip0_2077_104">
<rect width="78" height="87.2221" fill="white" transform="translate(0 0.00152588)"/>
</clipPath>
</defs>
</svg>
