<svg width="79" height="79" viewBox="0 0 79 79" fill="none" xmlns="http://www.w3.org/2000/svg">
<g clip-path="url(#clip0_2077_130)">
<path d="M17.4861 41.3941C17.1593 41.3941 16.9958 41.2307 16.8324 41.0672L10.557 34.7919C10.2302 34.465 10.2302 33.795 10.557 33.3047C18.1398 25.7219 28.37 21.424 39.2539 21.424C50.1378 21.424 60.2046 25.7056 67.9507 33.3047C68.1142 33.4681 68.2776 33.795 68.2776 33.9584C68.2776 34.1218 68.1142 34.4487 67.9507 34.6121L61.6753 41.0509C61.3485 41.3777 60.6785 41.3777 60.1882 41.0509C59.6979 40.7241 59.8614 40.054 60.1882 39.5638L65.6301 34.1218C58.3742 27.3562 49.1409 23.5648 39.2375 23.5648C29.3342 23.5648 19.9374 27.3562 12.8449 34.1218L18.2869 39.5638C18.6137 39.8906 18.6137 40.5606 18.2869 41.0509C17.96 41.2143 17.7966 41.3777 17.4698 41.3777L17.4861 41.3941Z" fill="#515151"/>
<path d="M54.7626 47.506C54.4358 47.506 54.2723 47.3426 54.1089 47.1792C53.7821 46.8524 53.7821 46.1823 54.1089 45.6921L59.5509 40.2501C54.1089 35.135 46.853 32.3405 39.2702 32.3405C31.6875 32.3405 24.595 35.1514 18.9896 40.2501L24.4315 45.6921C24.7584 46.0189 24.7584 46.6889 24.4315 47.1792C24.1047 47.506 23.4347 47.506 22.9444 47.1792L16.669 40.9038C16.5056 40.7404 16.3422 40.4135 16.3422 40.2501C16.3422 40.0867 16.5056 39.7598 16.669 39.5964C22.6012 33.6642 30.6906 30.3631 39.1068 30.3631C47.523 30.3631 55.5961 33.6642 61.5446 39.5964C61.8715 39.9233 61.8715 40.5933 61.5446 41.0836L55.2692 47.359C55.2692 47.5224 54.9424 47.5224 54.779 47.5224L54.7626 47.506Z" fill="#515151"/>
<path d="M48.4872 53.7651C48.1603 53.7651 47.9969 53.6017 47.8335 53.4382C47.5067 53.1114 47.5067 52.4414 47.8335 51.9511L53.2754 46.5091C45.3658 39.2532 33.1582 39.2532 25.2323 46.5091L30.6742 51.9511C31.0011 52.2779 31.0011 52.948 30.6742 53.4382C30.3474 53.7651 29.6773 53.7651 29.1871 53.4382L22.9117 47.1628C22.7483 46.9994 22.5848 46.6726 22.5848 46.5091C22.5848 46.3457 22.7483 46.0189 22.9117 45.8555C31.8182 36.949 46.4934 36.949 55.3999 45.8555C55.5634 46.0189 55.7268 46.3457 55.7268 46.5091C55.7268 46.6726 55.5634 46.9994 55.3999 47.1628L49.1245 53.4382C48.9611 53.6017 48.7977 53.7651 48.4708 53.7651H48.4872Z" fill="#515151"/>
<path d="M39.2539 63.0148C38.9271 63.0148 38.7636 62.8513 38.6002 62.6879L29.3669 53.4546C29.2035 53.2912 29.04 52.9643 29.04 52.8009C29.04 52.6375 29.2035 52.3106 29.3669 52.1472C34.9722 46.5418 43.8787 46.5418 49.4841 52.1472C49.6475 52.3106 49.8109 52.6375 49.8109 52.8009C49.8109 52.9643 49.6475 53.2912 49.4841 53.4546L39.9239 62.6879C39.7605 63.0147 39.4337 63.0148 39.2702 63.0148H39.2539ZM31.3443 52.7845L39.0905 60.5307L46.8367 52.7845C42.555 48.9932 35.9528 48.9932 31.3279 52.7845H31.3443Z" fill="#515151"/>
<path d="M39.2539 78.3437C17.6495 78.3437 0 60.6942 0 39.0898C0 17.4855 17.6495 -0.000671387 39.2539 -0.000671387C60.8583 -0.000671387 78.5078 17.6489 78.5078 39.2532C78.3444 60.6942 60.8583 78.3437 39.2539 78.3437ZM39.2539 2.14015C18.8098 2.14015 2.14082 18.8092 2.14082 39.2532C2.14082 59.6973 18.7935 76.3663 39.2539 76.3663C59.7143 76.3663 76.367 59.7136 76.367 39.2532C76.367 18.7928 59.7143 2.14015 39.2539 2.14015Z" fill="#515151"/>
</g>
<defs>
<clipPath id="clip0_2077_130">
<rect width="78.5078" height="78.3444" fill="white" transform="translate(0 -0.000671387)"/>
</clipPath>
</defs>
</svg>
