<svg width="96" height="96" viewBox="0 0 96 96" fill="none" xmlns="http://www.w3.org/2000/svg">
<g clip-path="url(#clip0_2077_41)">
<path d="M39.463 53.9872H31.4313C30.2555 53.9872 29.2618 52.9936 29.2618 51.8344V22.6881C29.2618 19.2104 32.1102 16.3951 35.621 16.3951C39.1318 16.3951 41.9802 19.2104 41.9802 22.6881V51.8344C41.8146 52.9936 40.6388 53.9872 39.463 53.9872ZM35.4554 18.548C33.1204 18.548 31.2656 20.3696 31.2656 22.6881V51.8344C31.2656 51.9448 31.3208 52 31.4313 52H39.463C39.5734 52 39.6286 51.9448 39.6286 51.8344V22.6881C39.6286 20.3696 37.7904 18.548 35.4554 18.548Z" fill="#515151"/>
<path d="M35.621 83.9615C35.1242 83.9615 34.6108 83.4647 34.6108 82.9679V52.9936C34.6108 52.4968 35.1077 52 35.621 52C36.1344 52 36.6312 52.4968 36.6312 52.9936V82.9679C36.7968 83.6303 36.3 83.9615 35.621 83.9615Z" fill="#515151"/>
<path d="M42.8083 83.9615C42.3115 83.9615 41.7981 83.4647 41.7981 82.9679V68.0636C41.7981 65.7451 40.4567 63.9235 38.6185 63.9235H32.4249C30.7523 63.9235 29.2453 65.7451 29.2453 68.0636V82.9679C29.2453 83.4647 28.7485 83.9615 28.2352 83.9615C27.7218 83.9615 27.225 83.4647 27.225 82.9679V68.0636C27.225 64.5859 29.56 61.9362 32.4084 61.9362H38.602C41.4504 61.9362 43.7854 64.7515 43.7854 68.0636V82.9679C43.7854 83.6303 43.2886 83.9615 42.7752 83.9615H42.8083Z" fill="#515151"/>
<path d="M62.217 83.9615C58.5406 83.9615 55.5266 80.9807 55.5266 77.3374V47.3631C55.5266 46.8663 56.0234 46.3694 56.5368 46.3694H56.868C52.347 42.7262 49.6808 37.0956 49.6808 30.9683C49.6808 20.3696 57.7126 11.5926 67.7482 11.5926C68.245 11.5926 68.7584 12.0894 68.7584 12.5862V77.1718C68.924 80.9807 65.91 83.9615 62.2336 83.9615H62.217ZM57.5304 48.5223V77.503C57.5304 79.987 59.5342 82.1399 62.217 82.1399C64.7176 82.1399 66.9036 80.1527 66.9036 77.503V13.9111C58.5406 14.5735 52.0158 22.0257 52.0158 31.1339C52.0158 37.758 55.5266 43.7198 61.0412 46.5351C61.538 46.7007 61.7036 47.1975 61.538 47.6943C61.3724 48.1911 61.0412 48.5223 60.5278 48.5223H57.5139H57.5304Z" fill="#515151"/>
<path d="M48.0082 95.057C35.1242 95.057 23.0848 90.0889 14.0594 81.1463C5.01743 72.2037 -0.000366211 60.2802 -0.000366211 47.5287C-0.000366211 34.7772 5.01743 22.8537 14.0428 13.9111C23.0848 4.96845 35.2898 0.000335693 48.0082 0.000335693C60.7266 0.000335693 72.9316 4.96845 81.957 13.9111C90.9825 22.8537 96.0003 34.9428 96.0003 47.5287C96.0003 60.1146 90.9825 72.2037 81.957 81.1463C72.9316 90.0889 60.8922 95.057 48.0082 95.057ZM48.0082 1.82198C22.5715 1.82198 2.00344 22.1913 2.00344 47.3631C2.00344 72.5349 22.5715 92.9041 47.9917 92.9041C73.4119 92.9041 93.9799 72.5349 93.9799 47.3631C93.9799 22.1913 73.4284 1.82198 48.0082 1.82198Z" fill="#515151"/>
<path d="M17.7359 68.726C17.4047 68.726 17.0735 68.5604 16.9079 68.2292C12.5525 62.1018 10.3831 54.8152 10.3831 47.3631C10.3831 46.8663 10.8799 46.3694 11.3932 46.3694C11.9066 46.3694 12.4034 46.8663 12.4034 47.3631C12.4034 54.484 14.5728 61.2738 18.4314 67.0699C18.7626 67.5668 18.597 68.2292 18.1002 68.5604C18.1002 68.5604 17.9346 68.726 17.769 68.726H17.7359Z" fill="#515151"/>
<path d="M79.9367 66.0763C79.7711 66.0763 79.6055 66.0763 79.4399 65.9107C78.9431 65.5795 78.7775 65.0827 79.1087 64.4203C81.9571 59.2866 83.6297 53.3248 83.6297 47.3631C83.6297 38.0893 79.9533 29.3122 73.4285 22.6881C73.0973 22.3569 73.0973 21.6945 73.4285 21.1977C73.7597 20.8664 74.4386 20.8664 74.9355 21.1977C81.7915 28.3186 85.6335 37.5924 85.6335 47.3631C85.6335 53.656 83.9609 59.949 80.9469 65.4139C80.7813 65.7451 80.2845 66.0763 79.9367 66.0763Z" fill="#515151"/>
</g>
<defs>
<clipPath id="clip0_2077_41">
<rect width="96.0006" height="95.0567" fill="white" transform="translate(-0.000366211 0.000335693)"/>
</clipPath>
</defs>
</svg>
