<svg width="73" height="87" viewBox="0 0 73 87" fill="none" xmlns="http://www.w3.org/2000/svg">
<path d="M51.9247 16.9511V15.6245C48.344 14.5928 45.799 12.9714 44.1566 11.35C45.5031 13.561 47.8853 15.6245 51.9247 16.9511Z" fill="#EABD8C"/>
<path d="M38.9179 70.8994H35.1892V74.5844H38.9179V70.8994Z" fill="#515151"/>
<path d="M38.9179 65.4437H35.1892V69.1286H38.9179V65.4437Z" fill="#515151"/>
<path d="M38.9179 59.8417H35.1892V63.5266H38.9179V59.8417Z" fill="#515151"/>
<path d="M20.2462 64.5595H12.774C12.3301 64.5595 11.8715 64.1173 11.8715 63.6751C11.8715 63.2329 12.3154 62.7907 12.774 62.7907H20.2462C20.6901 62.7907 21.1488 63.2329 21.1488 63.6751C21.1488 64.1173 20.7049 64.5595 20.2462 64.5595Z" fill="#515151"/>
<path d="M20.2462 70.0116H12.774C12.3301 70.0116 11.8715 69.5694 11.8715 69.1272C11.8715 68.685 12.3154 68.2428 12.774 68.2428H20.2462C20.6901 68.2428 21.1488 68.685 21.1488 69.1272C21.1488 69.5694 20.7049 70.0116 20.2462 70.0116Z" fill="#515151"/>
<path d="M35.9296 81.064C24.7287 81.064 13.661 79.8849 3.1999 77.3791C2.75601 77.2317 2.46008 76.9369 2.46008 76.4947V73.5468C2.46008 64.703 2.46008 60.2811 4.10248 57.1858C5.74489 53.9431 8.88172 52.3217 15.1554 48.9316C17.5524 47.7524 20.2306 46.2784 23.5302 44.3623C23.9741 44.0675 24.5807 44.2149 24.8766 44.6571C25.1726 45.0993 25.0246 45.6889 24.5807 45.9837C21.2959 47.8998 18.455 49.3738 16.2059 50.5529C10.2282 53.6483 7.23932 55.2696 5.89285 58.0702C4.39841 60.8707 4.39841 65.1452 4.54638 73.5468V75.7578C24.8618 80.327 47.2784 80.327 68.0526 75.7578V73.8416C68.0526 65.1452 68.0526 60.8707 66.5581 58.0702C65.0637 55.2696 62.0748 53.6483 55.9491 50.4056C53.7 49.2264 51.0219 47.7524 47.8851 45.9837C47.4412 45.6889 47.2932 45.0993 47.5891 44.6571C47.885 44.2149 48.4917 44.0675 48.9356 44.3623C52.0724 46.1311 54.6174 47.4576 56.9996 48.7842C63.4213 52.1743 66.5581 53.9431 68.3633 57.1858C69.7097 60.2811 69.7097 64.8504 69.7097 73.8416V76.4947C69.7097 76.9369 69.4138 77.2317 68.9551 77.3791C58.3461 79.7375 47.2932 81.064 36.0775 81.064H35.9296Z" fill="#515151"/>
<path d="M36.0791 39.9445C25.0262 39.9445 19.1964 24.7626 19.1964 16.5084V15.624C19.7883 6.92764 27.1125 0 36.0791 0C37.7215 0 39.3639 0.294793 40.8584 0.736983C47.5759 2.80053 52.3699 8.6964 52.8138 15.624V16.5084C52.9618 24.6152 47.132 39.9445 36.0791 39.9445ZM36.0791 1.91615C28.163 1.91615 21.5786 7.95941 21.1347 15.7714V16.5084C21.1347 23.8782 26.3727 38.0283 36.0791 38.0283C45.7856 38.0283 51.0235 23.7308 51.0235 16.5084V15.7714C50.7275 9.58077 46.3922 4.2745 40.4145 2.50574C39.068 2.06355 37.5735 1.91615 36.0791 1.91615Z" fill="#515151"/>
<path d="M42.6631 58.9573C42.5151 58.9573 42.3671 58.9573 42.2192 58.8099L35.7975 55.2724C35.6496 55.125 35.3536 54.9776 35.3536 54.6828C35.3536 54.388 35.3536 54.2407 35.5016 53.9459L43.7136 40.975C43.8616 40.6802 44.1575 40.5328 44.4682 40.5328C44.7789 40.5328 45.0601 40.5328 45.208 40.8276L48.9367 44.5125C49.2327 44.8073 49.2327 45.2495 49.0847 45.5443L43.4029 58.5152C43.2549 58.8099 43.107 58.9573 42.811 58.9573H42.6631ZM37.5731 54.2407L42.2044 56.8938L47.1316 45.5443L44.7346 43.1859L37.5583 54.2407H37.5731Z" fill="#515151"/>
<path d="M29.5089 58.9573H29.213C28.9171 58.8099 28.7691 58.6626 28.6212 58.5152L22.9393 45.5443C22.7914 45.2495 22.9393 44.8073 23.0873 44.5125L26.816 40.8276C26.964 40.6802 27.2599 40.5328 27.5558 40.5328C27.8517 40.5328 28.1477 40.6802 28.2956 40.975L36.9663 53.9459C37.1143 54.0933 37.1143 54.388 37.1143 54.6828C37.1143 54.9776 36.8184 55.125 36.6704 55.2724L29.9528 58.8099C29.8049 58.9573 29.6569 58.9573 29.5089 58.9573ZM25.0256 45.3969L29.9528 56.7464L34.88 54.0933L27.4079 42.8911L25.0108 45.3969H25.0256Z" fill="#515151"/>
<path d="M61.3374 71.9306H46.3931C45.9492 71.9306 45.4905 71.4884 45.4905 71.0462V61.7603C45.4905 61.3181 45.9344 60.8759 46.3931 60.8759H61.3374C61.7813 60.8759 62.24 61.3181 62.24 61.7603V71.0462C62.24 71.4884 61.7961 71.9306 61.3374 71.9306ZM47.2956 70.0145H60.4496V62.6446H47.2956V70.0145Z" fill="#515151"/>
<path d="M53.8641 62.6388C53.4202 62.6388 52.9615 62.1966 52.9615 61.7544V58.0695C52.9615 57.6273 53.4054 57.1851 53.8641 57.1851C54.3228 57.1851 54.7667 57.6273 54.7667 58.0695V61.7544C54.7667 62.1966 54.3228 62.6388 53.8641 62.6388Z" fill="#515151"/>
<path d="M51.9263 16.657H51.7783C38.1804 12.8247 39.8228 2.06473 39.8228 1.62254V1.47514C39.9708 1.03295 40.2667 0.738159 40.7254 0.738159C41.1841 0.738159 41.628 1.18035 41.628 1.62254V1.76994C41.48 2.35952 40.4294 11.4981 52.237 14.7408C52.6809 14.8882 52.9768 15.3304 52.8288 15.92C52.8288 16.3622 52.3849 16.657 51.9263 16.657Z" fill="#515151"/>
<path d="M20.5412 16.6539H20.2452C19.8013 16.6539 19.3427 16.2117 19.3427 15.7695C19.3427 15.3273 19.7865 14.8851 20.2452 14.8851C20.8371 14.8851 34.5977 15.1799 39.8209 1.47204C39.9688 1.02985 40.5607 0.735062 41.0194 0.882458C41.4633 1.02985 41.7592 1.61944 41.6112 2.06163C36.2253 16.0643 22.6275 16.6539 20.5412 16.6539Z" fill="#515151"/>
</svg>
