<svg width="75" height="82" viewBox="0 0 75 82" fill="none" xmlns="http://www.w3.org/2000/svg">
<g clip-path="url(#clip0_2077_114)">
<path d="M37.4126 65.6481C25.9441 65.6481 16.4161 56.295 16.4161 44.6516C16.4161 33.0082 25.7693 23.6551 37.4126 23.6551C49.056 23.6551 58.4091 33.0082 58.4091 44.6516C58.4091 56.295 48.8812 65.6481 37.4126 65.6481ZM37.4126 25.9453C26.9931 25.9453 18.7063 34.4068 18.7063 44.6516C18.7063 54.8964 27.1679 63.3579 37.4126 63.3579C47.6574 63.3579 56.1189 55.0712 56.1189 44.6516C56.1189 34.232 47.6574 25.9453 37.4126 25.9453Z" fill="#515151"/>
<path d="M37.4125 60.176C28.9335 60.176 21.8881 53.2879 21.8881 44.6516C21.8881 36.0152 28.7762 29.1271 37.4125 29.1271C41.4685 29.1271 45.1748 30.718 48.1818 33.3578C48.3566 33.5327 48.5314 33.8823 48.5314 34.232C48.5314 34.5816 48.3566 34.7564 48.1818 35.1061C45.5419 37.5711 44.1258 41.1026 44.1258 44.6341C44.1258 48.1655 45.5419 51.697 48.1818 54.162C48.3566 54.3369 48.5314 54.6865 48.5314 55.0362C48.5314 55.3858 48.3566 55.5606 48.1818 55.9103C45.1748 58.5502 41.2937 60.1411 37.4125 60.1411V60.176ZM37.4125 31.4173C30.1748 31.4173 24.1783 37.4138 24.1783 44.6516C24.1783 51.8893 30.1748 57.8858 37.4125 57.8858C40.4195 57.8858 43.409 56.8194 45.6992 54.8788C43.2342 52.0467 41.8181 48.5327 41.8181 44.6516C41.8181 40.7704 43.2342 37.239 45.6992 34.4243C43.409 32.4837 40.402 31.4173 37.4125 31.4173Z" fill="#515151"/>
<path d="M69.3532 73.9348C68.8287 73.9348 68.2867 73.4103 68.2867 72.8684V16.5921C68.2867 16.0677 68.8112 15.5257 69.3532 15.5257C69.8951 15.5257 70.4196 16.0502 70.4196 16.5921V72.8858C70.4196 73.4103 69.8951 73.9523 69.3532 73.9523V73.9348Z" fill="#515151"/>
<path d="M5.47207 73.9348C4.9476 73.9348 4.40564 73.4103 4.40564 72.8684V16.5921C4.40564 16.0677 4.93012 15.5257 5.47207 15.5257C6.01403 15.5257 6.53851 16.0502 6.53851 16.5921V72.8858C6.53851 73.4103 6.01403 73.9523 5.47207 73.9523V73.9348Z" fill="#515151"/>
<path d="M73.7587 17.6411H1.06643C0.541958 17.6411 0 17.1166 0 16.5746V8.63758C0 3.88234 3.88112 0.0012207 8.65385 0.0012207H66.3636C71.1364 0.0012207 75.0175 3.88234 75.0175 8.65507V16.5921C74.8427 17.1166 74.3182 17.6586 73.7762 17.6586L73.7587 17.6411ZM2.11538 15.5257H72.6923V8.63758C72.6923 5.10612 69.8601 2.29143 66.3462 2.29143H8.47902C4.94755 2.29143 2.13287 5.1236 2.13287 8.63758V15.5257H2.11538Z" fill="#515151"/>
<path d="M64.7552 81.697H10.0524C6.87057 81.697 4.23071 79.0571 4.23071 75.8753V72.6935C4.23071 72.169 4.75519 71.6271 5.29715 71.6271H69.3531C69.8776 71.6271 70.4195 72.1516 70.4195 72.6935V75.8753C70.4195 79.0571 67.9545 81.697 64.7727 81.697H64.7552ZM6.52092 73.9348V75.8753C6.52092 77.8159 8.11183 79.4068 10.0524 79.4068H64.7552C66.6958 79.4068 68.2867 77.8159 68.2867 75.8753V73.9348H6.52092Z" fill="#515151"/>
<path d="M64.4055 13.2355C62.2902 13.2355 60.5244 11.4698 60.5244 9.35438C60.5244 7.239 62.2902 5.47327 64.4055 5.47327C66.5209 5.47327 68.2867 7.239 68.2867 9.35438C68.2867 11.4698 66.5209 13.2355 64.4055 13.2355ZM64.4055 7.76348C63.5314 7.76348 62.8146 8.46278 62.8146 9.35438C62.8146 10.246 63.5139 10.9453 64.4055 10.9453C65.2971 10.9453 65.9964 10.246 65.9964 9.35438C65.9964 8.46278 65.2971 7.76348 64.4055 7.76348Z" fill="#515151"/>
<path d="M54.528 13.2355C52.4126 13.2355 50.6469 11.4698 50.6469 9.35438C50.6469 7.239 52.4126 5.47327 54.528 5.47327C56.6434 5.47327 58.4091 7.239 58.4091 9.35438C58.4091 11.4698 56.6434 13.2355 54.528 13.2355ZM54.528 7.76348C53.6538 7.76348 52.9371 8.46278 52.9371 9.35438C52.9371 10.246 53.6364 10.9453 54.528 10.9453C55.4196 10.9453 56.1189 10.246 56.1189 9.35438C56.1189 8.46278 55.4196 7.76348 54.528 7.76348Z" fill="#515151"/>
<path d="M44.4755 13.2355C42.3601 13.2355 40.5944 11.4698 40.5944 9.35438C40.5944 7.239 42.3601 5.47327 44.4755 5.47327C46.5909 5.47327 48.3566 7.239 48.3566 9.35438C48.3566 11.4698 46.5909 13.2355 44.4755 13.2355ZM44.4755 7.76348C43.6014 7.76348 42.8846 8.46278 42.8846 9.35438C42.8846 10.246 43.5839 10.9453 44.4755 10.9453C45.3671 10.9453 46.0664 10.246 46.0664 9.35438C46.2412 8.48026 45.5419 7.76348 44.4755 7.76348Z" fill="#515151"/>
<path d="M31.9405 10.5956H9.87759C9.35312 10.5956 8.81116 10.0712 8.81116 9.5292C8.81116 8.98724 9.33563 8.46277 9.87759 8.46277H31.9405C32.465 8.46277 33.007 8.98724 33.007 9.5292C33.007 10.0712 32.4825 10.5956 31.9405 10.5956Z" fill="#515151"/>
<path d="M69.3531 24.3544H52.7622C52.2378 24.3544 51.6958 23.8299 51.6958 23.2879C51.6958 22.746 52.2203 22.2215 52.7622 22.2215H69.3531C69.8776 22.2215 70.4196 22.746 70.4196 23.2879C70.4196 23.8299 69.8951 24.3544 69.3531 24.3544Z" fill="#515151"/>
<path d="M21.8881 24.3544H5.29715C4.77267 24.3544 4.23071 23.8299 4.23071 23.2879C4.23071 22.746 4.75519 22.2215 5.29715 22.2215H21.8881C22.4125 22.2215 22.9545 22.746 22.9545 23.2879C23.1293 23.8124 22.6048 24.3544 21.8881 24.3544Z" fill="#515151"/>
</g>
<defs>
<clipPath id="clip0_2077_114">
<rect width="75" height="81.6958" fill="white" transform="translate(0 0.0012207)"/>
</clipPath>
</defs>
</svg>
