<svg width="75" height="92" viewBox="0 0 75 92" fill="none" xmlns="http://www.w3.org/2000/svg">
<path d="M62.4575 71.2L53.6124 62.4L51.8434 60.64H51.2059L60.051 69.44L61.5013 70.88C62.1388 71.52 62.7922 72 63.4297 72.32L62.4575 71.2Z" fill="#EABF6A"/>
<path d="M32.3523 16C27.8421 16 24.3041 12.48 24.3041 8C24.3041 3.52 27.8421 0 32.3523 0C36.8625 0 40.4006 3.52 40.4006 8C40.4006 12.48 36.8625 16 32.3523 16ZM32.3523 1.92C28.9736 1.92 26.2325 4.64 26.2325 8C26.2325 11.36 28.9736 14.08 32.3523 14.08C35.731 14.08 38.4722 11.36 38.4722 8C38.4722 4.64 35.731 1.92 32.3523 1.92Z" fill="#515151"/>
<path d="M31.2208 92C14.0087 92 0 78.08 0 60.96C0 53.76 2.58181 46.72 7.07607 41.28C11.5863 35.84 18.0249 32 24.9416 30.56C25.4197 30.4 26.0731 30.72 26.0731 31.36C26.2325 31.84 25.9137 32.48 25.2762 32.48C11.7456 35.2 1.92839 47.2 1.92839 60.96C1.92839 76.96 14.9649 89.92 31.0614 89.92C43.9386 89.92 55.3655 81.44 59.0629 69.12C59.2223 68.64 59.7004 68.32 60.3538 68.48C60.8319 68.64 61.1507 69.12 60.9913 69.76C59.0629 76 55.1902 81.76 49.8831 85.6C44.5761 89.76 38.1375 92 31.2048 92H31.2208Z" fill="#515151"/>
<path d="M31.2208 81.92C19.6345 81.92 10.136 72.48 10.136 60.96C10.136 56.32 11.5863 52 14.3274 48.48C16.9093 44.96 20.766 42.24 24.9575 40.96C25.4356 40.8 26.089 41.12 26.2484 41.6C26.4078 42.08 26.089 42.72 25.6109 42.88C17.5627 45.44 12.2556 52.64 12.2556 60.96C12.2556 71.36 20.782 80 31.412 80C42.0421 80 50.5684 71.52 50.5684 60.96V60.64C50.5684 60.16 51.0465 59.68 51.5406 59.68C52.0346 59.68 52.5127 60.16 52.5127 60.64V60.96C52.3534 72.48 42.8549 81.92 31.2686 81.92H31.2208Z" fill="#515151"/>
<path d="M39.4284 43.68C39.269 43.68 39.1096 43.68 38.9503 43.52H38.7909L39.6037 41.6H39.7631C40.2412 41.76 40.5599 42.4 40.2412 42.88C40.2412 43.36 39.7631 43.68 39.4443 43.68H39.4284Z" fill="#515151"/>
<path d="M66.633 73.92C64.5453 73.92 62.4416 73.12 60.9913 71.52L49.2457 59.84H32.177C30.0893 59.84 27.9856 59.04 26.5512 57.44C25.1009 56 24.1288 53.92 24.1288 51.84V27.84C24.1288 23.36 27.6668 19.84 32.177 19.84C36.6872 19.84 40.2253 23.36 40.2253 27.84V44.32C40.3846 44.48 40.3846 44.64 40.3846 44.8C40.3846 45.28 39.9065 45.76 39.4125 45.76H39.2531C38.775 45.76 38.2809 45.28 38.2809 44.8V28C38.2809 24.64 35.5397 21.92 32.3205 21.92C28.9418 21.92 26.2006 24.64 26.2006 28V52C26.2006 53.6 26.8381 55.04 27.9696 56.32C29.1012 57.44 30.5514 58.08 32.3205 58.08H49.7078C50.0266 58.08 50.1859 58.24 50.3453 58.4L62.4097 70.4C63.5412 71.52 65.1509 72.16 66.7605 72.16C68.3702 72.16 69.8205 71.52 71.1114 70.4C72.2429 69.28 72.8804 67.84 72.8804 66.08C72.8804 64.32 72.2429 63.04 71.1114 61.76L56.9433 47.68C55.9711 46.72 54.8555 46.24 53.724 46.08C53.2459 45.92 52.7518 45.44 52.9271 44.96C53.0865 44.48 53.5646 44 54.0587 44.16C55.6683 44.48 57.278 45.28 58.4095 46.4L72.5776 60.48C74.0278 61.92 74.9841 64 74.9841 66.08C74.9841 68.16 74.1872 70.24 72.5776 71.68C70.8086 73.12 68.7208 73.92 66.6171 73.92H66.633Z" fill="#515151"/>
<path d="M53.4371 45.92H39.269C38.7909 45.92 38.2969 45.44 38.2969 44.96V36.96C38.2969 36.48 38.775 36 39.269 36H49.5644C50.8553 36 51.9868 36.48 52.9431 37.44C53.9152 38.4 54.3933 39.52 54.3933 40.8V45.12C54.5527 45.44 54.0746 45.92 53.4212 45.92H53.4371ZM40.4006 44H52.465V40.8C52.465 40 52.1462 39.36 51.6681 38.88C51.19 38.4 50.3772 38.08 49.7397 38.08H40.4006V44Z" fill="#515151"/>
</svg>
