<svg width="101" height="85" viewBox="0 0 101 85" fill="none" xmlns="http://www.w3.org/2000/svg">
<g clip-path="url(#clip0_2077_52)">
<path d="M80.8748 85H20.1253C16.3529 85 13.1144 82.526 12.0467 78.9917L4.50198 53.368C4.32403 52.8378 4.67992 52.131 5.21375 51.9543C5.74757 51.7775 6.47714 52.131 6.65508 52.6611L14.1998 78.2848C14.9116 80.9356 17.4384 82.7027 20.1253 82.7027H81.0527C83.7574 82.7027 86.2664 80.9356 86.9782 78.2848L94.5229 52.6611C94.7009 52.131 95.2347 51.7775 95.9643 51.9543C96.4981 52.131 96.854 52.6611 96.676 53.368L89.1313 78.9917C88.0458 82.526 84.6471 85 80.857 85H80.8748Z" fill="#515151"/>
<path d="M92.3697 63.9709H24.983C24.4492 63.9709 23.8976 63.4407 23.8976 62.9106C23.8976 62.3805 24.4314 61.8503 24.983 61.8503H92.3697C92.9036 61.8503 93.4552 62.3805 93.4552 62.9106C93.4552 63.4407 92.9214 63.9709 92.3697 63.9709Z" fill="#515151"/>
<path d="M61.8171 45.2391C61.1054 45.2391 60.5538 44.5322 60.7317 44.0021V43.1185C60.7317 38.8774 57.1373 35.343 52.8311 35.343C52.1193 35.343 51.3897 35.5198 50.678 35.6965C50.3221 35.6965 49.9662 35.6965 49.7882 35.5198C49.6103 35.343 49.2544 34.9896 49.2544 34.8129C48.3647 29.3347 43.6848 25.447 38.1152 25.447C32.5456 25.447 28.0437 29.3347 26.9761 34.6362C26.7981 35.1663 26.2643 35.6965 25.7127 35.5198C25.3568 35.5198 25.0009 35.343 24.6272 35.343C22.6521 35.343 20.6769 36.2266 19.4135 37.8171C19.2356 38.1705 18.7017 38.3472 18.3281 38.1705C17.9722 38.1705 17.6163 37.8171 17.4384 37.4636C16.5486 35.3431 14.5557 34.106 12.2246 34.106C9.16404 34.106 6.65505 36.5801 6.65505 39.5842C6.65505 40.9979 7.18888 42.2349 8.09639 43.2952C8.45227 43.8254 8.45227 44.5322 8.09639 44.8857C7.56256 45.2391 6.833 45.2391 6.47711 44.8857C5.21372 43.4719 4.50195 41.7048 4.50195 39.7609C4.50195 35.5198 8.09639 31.9855 12.4026 31.9855C14.9116 31.9855 17.4384 33.2225 18.8797 35.343C20.6769 33.9293 22.83 33.0458 25.161 33.2225C26.6024 27.3909 31.994 23.3264 38.2754 23.3264C41.5139 23.3264 44.5567 24.3867 47.0835 26.5073C49.2366 28.2744 50.678 30.7485 51.3897 33.3992C51.9236 33.3992 52.4752 33.2225 52.8311 33.2225C58.4007 33.2225 62.9026 37.6403 62.9026 43.1185V44.3555C62.9026 44.8857 62.3688 45.2391 61.8171 45.2391Z" fill="#515151"/>
<path d="M95.4304 54.0748H5.56959C4.12826 54.0748 2.68693 53.5447 1.61927 52.4844C0.533827 51.4241 0 50.0104 0 48.5967C0 45.5925 2.50899 43.1185 5.56959 43.1185H95.4304C96.8717 43.1185 98.3131 43.6486 99.3807 44.7089C100.466 45.7692 101 47.1829 101 48.5967C101 51.6008 98.491 54.0748 95.4304 54.0748ZM5.56959 45.2391C3.77238 45.2391 2.1531 46.6528 2.1531 48.5967C2.1531 49.4802 2.50899 50.3638 3.04281 50.894C3.75458 51.6008 4.48414 51.7775 5.37385 51.7775H95.2347C97.0319 51.7775 98.6512 50.3638 98.6512 48.42C98.6512 47.5364 98.2953 46.6528 97.7615 46.1227C97.2276 45.5925 96.3201 45.2391 95.4304 45.2391H5.56959Z" fill="#515151"/>
<path d="M82.8499 21.0291H67.0309C66.497 21.0291 65.9454 20.499 65.9454 19.9688C65.9454 15.0208 69.8958 11.1331 74.9315 11.1331C79.9673 11.1331 83.9176 15.0208 83.9176 19.9688C83.9176 20.499 83.3838 21.0291 82.8321 21.0291H82.8499ZM68.2943 18.7318H81.5865C81.0527 15.5509 78.348 13.2536 74.9315 13.2536C71.515 13.2536 68.8281 15.5509 68.2765 18.7318H68.2943Z" fill="#515151"/>
<path d="M88.4194 45.2391C87.8856 45.2391 87.334 44.7089 87.334 44.1788V37.4636C87.334 36.9335 87.8678 36.4033 88.4194 36.4033C88.971 36.4033 89.5049 36.9335 89.5049 37.4636V44.1788C89.6828 44.7089 89.149 45.2391 88.4194 45.2391Z" fill="#515151"/>
<path d="M88.4195 26.5073C87.8857 26.5073 87.3341 25.9771 87.3341 25.447V7.77547C87.3341 6.36175 86.8003 4.94803 85.7148 3.88773C84.6294 2.82744 83.2058 2.2973 81.7645 2.2973C78.7039 2.2973 76.1949 4.77131 76.1949 7.77547V12.1933C76.1949 12.7235 75.6611 13.2536 75.1095 13.2536C74.5578 13.2536 73.8461 12.7235 73.8461 12.1933V7.77547C73.8461 3.5343 77.4405 0 81.7467 0C83.8998 0 85.875 0.883576 87.3163 2.2973C88.7576 3.71102 89.6473 5.65489 89.6473 7.77547V25.447C89.6473 25.9771 89.1135 26.5073 88.3839 26.5073H88.4195Z" fill="#515151"/>
<path d="M88.4194 38.7006C85.9105 38.7006 83.9353 36.7568 83.9353 34.2827V28.8046C83.9353 26.3306 85.9105 24.3867 88.4194 24.3867C89.6828 24.3867 90.7505 24.9168 91.658 25.6237C92.5477 26.5073 92.9214 27.5676 92.9214 28.8046V34.2827C92.9214 36.58 90.9462 38.7006 88.4372 38.7006H88.4194ZM88.4194 26.5073C87.1561 26.5073 86.0884 27.5676 86.0884 28.8046V34.2827C86.0884 35.5197 87.1739 36.58 88.4194 36.58C89.665 36.58 90.7505 35.5197 90.7505 34.2827V28.8046C90.7505 28.2744 90.5725 27.7443 90.0387 27.2141C89.6828 26.684 89.149 26.5073 88.4194 26.5073Z" fill="#515151"/>
<path d="M69.3618 38.7006C68.828 38.7006 68.2764 38.1705 68.2764 37.6403V26.5073C68.2764 25.9771 68.8102 25.447 69.3618 25.447C69.9134 25.447 70.4473 25.9771 70.4473 26.5073V37.6403C70.4473 38.1705 69.9134 38.7006 69.3618 38.7006Z" fill="#515151"/>
<path d="M73.8638 29.8649C73.3299 29.8649 72.7783 29.3347 72.7783 28.8046V24.3867C72.7783 23.8566 73.3121 23.3264 73.8638 23.3264C74.4154 23.3264 74.9492 23.8566 74.9492 24.3867V28.8046C74.9492 29.3347 74.4154 29.8649 73.8638 29.8649Z" fill="#515151"/>
<path d="M78.3479 33.0457C77.8141 33.0457 77.2625 32.5156 77.2625 31.9855V26.5073C77.2625 25.9771 77.7963 25.447 78.3479 25.447C78.8995 25.447 79.4333 25.9771 79.4333 26.5073V31.9855C79.4333 32.5156 78.8995 33.0457 78.3479 33.0457Z" fill="#515151"/>
</g>
<defs>
<clipPath id="clip0_2077_52">
<rect width="101" height="85" fill="white"/>
</clipPath>
</defs>
</svg>
