<svg width="83" height="75" viewBox="0 0 83 75" fill="none" xmlns="http://www.w3.org/2000/svg">
<g clip-path="url(#clip0_2077_84)">
<path d="M17.6055 74.0228C12.3554 74.0228 8.23694 69.9415 8.23694 64.747C8.23694 59.5526 12.3554 55.4712 17.6055 55.4712C22.8556 55.4712 26.9741 59.5526 26.9741 64.747C26.9741 69.9415 22.6701 74.0228 17.6055 74.0228ZM17.6055 57.8829C13.6726 57.8829 10.4817 61.0367 10.4817 64.9325C10.4817 68.8284 13.6726 71.9821 17.6055 71.9821C21.5385 71.9821 24.7293 68.8284 24.7293 64.9325C24.7293 61.0367 21.3529 57.8829 17.6055 57.8829Z" fill="#515151"/>
<path d="M17.6056 69.3849C14.9898 69.3849 12.9305 67.3443 12.9305 64.747C12.9305 62.1498 14.9898 60.1091 17.6056 60.1091C20.2213 60.1091 22.2806 62.1498 22.2806 64.747C22.2806 67.3443 20.0358 69.3849 17.6056 69.3849ZM17.6056 62.5208C16.2884 62.5208 15.1753 63.6339 15.1753 64.9326C15.1753 66.2312 16.3069 67.3443 17.6056 67.3443C18.9042 67.3443 20.0358 66.2312 20.0358 64.9326C19.8503 63.4484 18.7187 62.5208 17.6056 62.5208Z" fill="#515151"/>
<path d="M53.7627 69.3849C51.1469 69.3849 49.0876 67.3443 49.0876 64.747C49.0876 62.1498 51.1469 60.1091 53.7627 60.1091C56.3784 60.1091 58.4377 62.1498 58.4377 64.747C58.4377 67.3443 56.3784 69.3849 53.7627 69.3849ZM53.7627 62.5208C52.4455 62.5208 51.3324 63.6339 51.3324 64.9326C51.3324 66.2312 52.464 67.3443 53.7627 67.3443C55.0613 67.3443 56.1929 66.2312 56.1929 64.9326C56.1929 63.4484 55.0613 62.5208 53.7627 62.5208Z" fill="#515151"/>
<path d="M53.7626 74.0228C48.5125 74.0228 44.394 69.9415 44.394 64.747C44.394 59.5526 48.5125 55.4712 53.7626 55.4712C59.0127 55.4712 63.1312 59.5526 63.1312 64.747C63.1312 69.9415 59.0127 74.0228 53.7626 74.0228ZM53.7626 57.8829C49.8297 57.8829 46.6388 61.0367 46.6388 64.9325C46.6388 68.8284 49.8297 71.9821 53.7626 71.9821C57.6956 71.9821 60.8864 68.8284 60.8864 64.9325C60.8864 61.0367 57.6956 57.8829 53.7626 57.8829Z" fill="#515151"/>
<path d="M69.1419 57.8829H1.13165C0.575101 57.8829 0 57.3264 0 56.7698C0 56.2133 0.556549 55.6567 1.13165 55.6567H67.8248V1.11493C67.8248 0.55838 68.3813 0.00183105 68.9564 0.00183105H81.8869C82.4434 0.00183105 83.0185 0.55838 83.0185 1.11493C83.0185 1.67148 82.462 2.22803 81.8869 2.22803H70.0881V56.7698C70.2736 57.3264 69.717 57.8829 69.1605 57.8829H69.1419Z" fill="#515151"/>
<path d="M56.0259 52.1319H51.5364C50.9799 52.1319 50.4048 51.5753 50.4048 51.0188C50.4048 50.4622 50.9613 49.9057 51.5364 49.9057H56.0259C58.6417 49.9057 60.905 47.6795 60.905 45.0823V15.3997C60.905 12.8024 58.6603 10.5762 56.0259 10.5762H51.5364C50.9799 10.5762 50.4048 10.0197 50.4048 9.46313C50.4048 8.90659 50.9613 8.35004 51.5364 8.35004H56.0259C59.9589 8.35004 63.3353 11.5038 63.3353 15.5852V45.2678C63.1498 48.7926 59.9589 52.1319 56.0259 52.1319Z" fill="#515151"/>
<path d="M45.7112 10.3907H43.2809C42.7244 10.3907 42.1493 9.8342 42.1493 9.27765C42.1493 8.7211 42.7058 8.16455 43.2809 8.16455H45.7112C46.2678 8.16455 46.8429 8.7211 46.8429 9.27765C46.8429 9.8342 46.2863 10.3907 45.7112 10.3907Z" fill="#515151"/>
<path d="M25.6754 10.3907H23.2452C22.6886 10.3907 22.1135 9.8342 22.1135 9.27765C22.1135 8.7211 22.6701 8.16455 23.2452 8.16455H25.6754C26.232 8.16455 26.8071 8.7211 26.8071 9.27765C26.9926 9.8342 26.4361 10.3907 25.6754 10.3907Z" fill="#515151"/>
<path d="M17.6055 52.1319H13.116C9.18304 52.1319 5.80664 48.9781 5.80664 44.8968V15.2141C5.80664 11.3183 8.99752 7.979 13.116 7.979H17.6055C18.162 7.979 18.7371 8.53555 18.7371 9.0921C18.7371 9.64865 18.1806 10.2052 17.6055 10.2052H13.116C10.5002 10.2052 8.2369 12.4314 8.2369 15.0286V44.7112C8.2369 47.3085 10.4817 49.5347 13.116 49.5347H17.6055C18.162 49.5347 18.7371 50.0912 18.7371 50.6478C18.7371 51.2043 18.1806 52.1319 17.6055 52.1319Z" fill="#515151"/>
<path d="M45.7112 52.1319H23.4122C22.8556 52.1319 22.2805 51.5753 22.2805 51.0188C22.2805 50.4623 22.8371 49.9057 23.4122 49.9057H45.7112C46.2678 49.9057 46.8429 50.4623 46.8429 51.0188C46.8429 51.5753 46.2863 52.1319 45.7112 52.1319Z" fill="#515151"/>
<path d="M23.4122 52.1319H17.6055C17.049 52.1319 16.4739 51.5753 16.4739 51.0188V9.0921C16.4739 8.53555 17.0304 7.979 17.6055 7.979H23.4122C23.9687 7.979 24.5438 8.53555 24.5438 9.0921V50.8333C24.5438 51.5753 23.9873 52.1319 23.4122 52.1319ZM18.7372 49.7202H22.2991V10.3907H18.7372V49.7202Z" fill="#515151"/>
<path d="M51.5179 52.1319H45.7112C45.1547 52.1319 44.5796 51.5753 44.5796 51.0188V9.0921C44.5796 8.53555 45.1361 7.979 45.7112 7.979H51.5179C52.0744 7.979 52.6495 8.53555 52.6495 9.0921V50.8333C52.6495 51.5753 52.093 52.1319 51.5179 52.1319ZM46.8429 49.7202H50.4048V10.3907H46.8429V49.7202Z" fill="#515151"/>
<path d="M43.281 10.3907H25.6755C25.1189 10.3907 24.5438 9.83417 24.5438 9.27762V6.68039C24.5438 4.26868 26.4175 2.41351 28.8478 2.41351H40.0901C42.5204 2.41351 44.3941 4.26868 44.3941 6.68039V9.27762C44.3941 9.83417 43.8375 10.3907 43.2624 10.3907H43.281ZM26.9741 7.979H42.1493V6.49487C42.1493 5.38177 41.2217 4.45419 40.0901 4.45419H28.8478C27.7162 4.45419 26.7886 5.38177 26.7886 6.49487V7.979H26.9741Z" fill="#515151"/>
<path d="M17.6055 42.8561H7.12384C6.56729 42.8561 5.99219 42.2995 5.99219 41.743C5.99219 41.1864 6.54874 40.6299 7.12384 40.6299H17.6241C18.1806 40.6299 18.7557 41.1864 18.7557 41.743C18.7557 42.2995 18.1992 42.8561 17.6241 42.8561H17.6055Z" fill="#515151"/>
<path d="M45.7112 42.8561H23.4122C22.8556 42.8561 22.2805 42.2995 22.2805 41.743C22.2805 41.1864 22.8371 40.6299 23.4122 40.6299H45.7112C46.2678 40.6299 46.8429 41.1864 46.8429 41.743C46.8429 42.2995 46.2863 42.8561 45.7112 42.8561Z" fill="#515151"/>
<path d="M62.0181 42.8561H51.5179C50.9613 42.8561 50.3862 42.2995 50.3862 41.743C50.3862 41.1864 50.9428 40.6299 51.5179 40.6299H62.0181C62.5747 40.6299 63.1498 41.1864 63.1498 41.743C63.1498 42.2995 62.5932 42.8561 62.0181 42.8561Z" fill="#515151"/>
</g>
<defs>
<clipPath id="clip0_2077_84">
<rect width="83" height="74.021" fill="white" transform="translate(0 0.00183105)"/>
</clipPath>
</defs>
</svg>
