<svg width="24" height="24" viewBox="0 0 24 24" fill="none" xmlns="http://www.w3.org/2000/svg">
<g clip-path="url(#clip0_2091_40)">
<path d="M16.2286 3.44372C15.1457 1.37543 13.77 0.146158 12.2969 -0.000183105V6.39494H17.3603C17.0676 5.31201 16.7213 4.33152 16.2286 3.44372Z" fill="white"/>
<path d="M6.5921 17.4547H11.7092V12.2889H5.9043C5.95308 14.1084 6.1482 15.8791 6.5921 17.4547Z" fill="white"/>
<path d="M7.77233 3.44372C7.32843 4.32665 6.93819 5.31201 6.64062 6.39494H11.704V-0.000183105C10.2309 0.194939 8.85038 1.37543 7.76745 3.44372H7.77233Z" fill="white"/>
<path d="M5.9043 11.7042H11.6604V7.03107H6.44576C6.15308 8.45546 5.95308 10.0311 5.9043 11.7042Z" fill="white"/>
<path d="M7.7715 20.5599C8.85443 22.6233 10.23 23.8526 11.7081 24.0038V18.1014H6.79102C7.03492 18.9843 7.38126 19.8233 7.77638 20.5599H7.7715Z" fill="white"/>
<path d="M5.85366 7.03297H1.32683C1.27805 7.03297 1.18049 7.03297 1.13171 6.98419C0.443902 8.40858 0.0487805 10.033 0 11.7061H5.26341C5.31219 10.0818 5.50732 8.46224 5.85366 7.03297Z" fill="white"/>
<path d="M7.23066 3.14444C7.91846 1.86639 8.70383 0.881029 9.54285 0.242004C6.00139 0.983468 3.05017 3.29566 1.42578 6.39322H6.00139C6.29407 5.21274 6.6892 4.12981 7.23066 3.14932V3.14444Z" fill="white"/>
<path d="M5.3122 12.2967H0C0.0487805 14.165 0.541463 15.8869 1.32683 17.4625H5.95122C5.5561 15.8869 5.3122 14.1162 5.3122 12.2967Z" fill="white"/>
<path d="M7.22997 20.8575C6.78607 20.0233 6.44461 19.0867 6.14705 18.1014H1.72266C3.39583 20.955 6.24949 23.0185 9.59095 23.755C8.65436 23.116 7.869 22.1306 7.22997 20.8526V20.8575Z" fill="white"/>
<path d="M16.7712 20.8526C16.0834 22.1306 15.298 23.116 14.459 23.755C17.8053 23.0672 20.6053 20.9502 22.3273 18.1014H17.9029C17.6053 19.0867 17.2151 20.0185 16.7712 20.8575V20.8526Z" fill="white"/>
<path d="M16.7712 3.14444C17.2639 4.12981 17.7078 5.20786 18.0004 6.38835H22.5761C20.9517 3.29079 17.9517 0.97859 14.459 0.242004C15.3419 0.881029 16.1322 1.86639 16.7712 3.14444Z" fill="white"/>
<path d="M18.6889 11.7061H23.9523C23.9036 10.033 23.5084 8.41346 22.8206 6.98419C22.7719 7.03297 22.7231 7.03297 22.6255 7.03297H18.1523C18.4987 8.45736 18.6938 10.0818 18.6938 11.7061H18.6889Z" fill="white"/>
<path d="M17.5564 7.03107H12.293V11.7042H18.0491C18.0491 10.0311 17.8539 8.46034 17.5564 7.03107Z" fill="white"/>
<path d="M18.0978 12.2967H12.293V17.4625H17.41C17.8539 15.8869 18.0491 14.1162 18.0978 12.2967Z" fill="white"/>
<path d="M18.0488 17.4547H22.6732C23.4586 15.8791 23.9513 14.1621 24 12.2889H18.6879C18.6879 14.1084 18.444 15.8791 18.0488 17.4547Z" fill="white"/>
<path d="M16.2286 20.5599C16.6237 19.8233 16.9652 18.9843 17.2139 18.1014H12.2969V24.0038C13.77 23.8087 15.1505 22.6282 16.2335 20.5599H16.2286Z" fill="white"/>
</g>
<defs>
<clipPath id="clip0_2091_40">
<rect width="24" height="24" fill="white"/>
</clipPath>
</defs>
</svg>
