<svg width="24" height="24" viewBox="0 0 24 24" fill="none" xmlns="http://www.w3.org/2000/svg">
<g clip-path="url(#clip0_2091_35)">
<path d="M22.5481 15.7677C21.5826 14.7963 20.345 14.316 19.0007 14.316C17.6564 14.316 16.3654 14.855 15.3999 15.821C15.2932 15.9278 15.1331 16.0879 15.0211 16.2533C14.9678 16.3067 14.8611 16.36 14.7544 16.36C14.6477 16.36 14.5944 16.3067 14.4877 16.2533L7.76617 9.52883C7.71282 9.47546 7.65948 9.36872 7.65948 9.26198C7.65948 9.15524 7.71282 9.10187 7.76617 8.99514C7.9262 8.8884 8.03289 8.72829 8.19827 8.61622C10.188 6.62556 10.188 3.45011 8.25161 1.45945C7.28606 0.49347 6.04845 0.0078125 4.70416 0.0078125C3.35986 0.0078125 2.0529 0.541502 1.08735 1.50748C-0.635698 3.23129 0.00977884 5.97446 0.815291 7.96512C2.21294 11.354 5.33363 15.3887 9.0998 18.6709C12.9727 22.0598 16.8455 23.9971 19.5875 23.9971C20.7717 23.9971 21.7373 23.6182 22.4894 22.9191C23.455 21.9478 23.9938 20.7149 23.9938 19.3167C23.9938 17.9184 23.455 16.6803 22.5428 15.7677H22.5481Z" fill="white"/>
</g>
<defs>
<clipPath id="clip0_2091_35">
<rect width="24" height="24" fill="white"/>
</clipPath>
</defs>
</svg>
