<?xml version="1.0" encoding="UTF-8"?>
<svg id="_레이어_1" data-name="레이어_1" xmlns="http://www.w3.org/2000/svg" version="1.1" viewBox="0 0 81.71 81.71">
  <!-- Generator: Adobe Illustrator 29.8.1, SVG Export Plug-In . SVG Version: 2.1.1 Build 2)  -->
  <defs>
    <style>
      .st0 {
        fill: #f9f9f9;
      }

      .st1 {
        fill: #3da685;
      }
    </style>
  </defs>
  <path class="st1" d="M81.71,40.86c0,22.56-18.29,40.86-40.86,40.86S0,63.42,0,40.86,18.29,0,40.86,0s40.86,18.29,40.86,40.86Z"/>
  <path class="st0" d="M54.51,48.99c-.45-.13-.97-.07-1.41.04-.1.03-.22-.04-.19.13-1.64.54-2.35,2.5-1.59,4.05.33.69.71.97,1.35,1.35.26.15.38.21.71.24.02,0,.04,0,.06,0,.35.15.77.15,1.13,0,.02,0,.04,0,.06,0,.47-.04.76-.19,1.13-.47.24-.19.52-.47.71-.71.2-.24.26-.28.36-.59,0-.02,0-.04,0-.06.38-.65.3-1.47,0-2.14-.41-.91-1.21-1.59-2.19-1.78,0,0-.02-.05-.06-.06-.02,0-.04,0-.06,0ZM27.27,49.05c-.44.07-.8.23-1.19.47-.32.2-.52.44-.71.77,0,.01,0,.04,0,.06-.02.03-.07.05-.12.18-.94,2.31.6,4.52,3.11,4.27.16-.01.92-.21,1.04-.27.1-.05.72-.53.8-.62.33-.4.61-.97.69-1.48.18.03.11-.09.12-.2.03-1.01-.26-1.89-1.07-2.53-.26-.21-.87-.58-1.19-.65-.38-.17-.87-.13-1.28-.12-.11,0-.24-.06-.2.12ZM27.69,27.21c-1.12.05-1.91.63-2.2,1.72-.1,3.85-.1,7.78,0,11.63.22.85.8,1.33,1.6,1.6,9.21.1,18.5.1,27.71,0,.82-.22,1.47-.77,1.6-1.64v-11.39c-.1-1.13-1.04-2-2.19-1.93l-.2-.12h-26.23l-.09.12ZM34.93,21.22c-.19.03-.72.34-.83.5-.58.85-.14,1.96.83,2.23.06.1.22.06.32.06,3.86.05,7.72-.04,11.57,0,1.62-.26,1.76-2.47.11-2.84-3.89.02-7.79-.05-11.69,0-.1,0-.26-.04-.32.06ZM55.58,17.78c.1,0,.2-.01.3,0,.38.17.8.22,1.19.36,2.01.68,3.45,2.76,3.56,4.87l-.06,12.73.06.12c.4-.01,1.19.18,1.43-.15.25-.35.57-.75,1.06-.8.1-.01.87-.04.92-.03.04,0,.03.11.08.12.11.03.21,0,.36.05.38.14.85.81.91,1.2l-.06,4.87c-.01.07,0,.15-.03.24-.02.06-.08.09-.09.11-.53.95-1.74,1.06-2.61.53-.34-.25-.59-.66-.65-1.1-.08-.63-.1-2.99,0-3.58,0,0,.07-.01.06-.06h-1.42s.06,15.9.06,15.9c-.01.16-.04.32-.06.47l-.41,1.37c-.53,1.15-1.14,1.82-2.2,2.49-.59.32-1.11.54-1.76.7-.1.03-.22,0-.26.13-.12.02-.36.05-.48.06-.5-.14-1.08-.02-1.6-.06l.06.06c-.12,1.41.17,3.09-.01,4.47-.07.53-.65,1.1-1.17,1.17h-3.44c-.58-.08-.97-.62-1.13-1.13l.06-4.57h-14.63c-.07,0-.09.15-.09.21-.13,1.15,0,2.94,0,4.16,0,.1-.04.26.06.33-.08.21-.2.51-.38.65-.12.1-.66.34-.8.35h-3.21c-.54-.06-.89-.4-1.07-.89l-.06-4.81h-1.75c-.28,0-1.15-.26-1.45-.36-.49-.16-.72-.28-1.13-.59-.68-.52-1.24-1.1-1.7-1.84l-.62-1.43c-.07-.27-.11-.56-.18-.83v-15.96s-.04,0-.06,0c-.4-.14-.89-.02-1.31-.06l.06,3.74c-.44,1.97-3.34,1.84-3.5-.27-.09-1.09-.1-3.2.01-4.27.07-.72.37-1.1,1-1.4l.3-.12s.04,0,.06,0c.45-.03.71,0,1.13.12.06.02.14,0,.24.03.19.07.74.56.77.75,0,0-.07.02-.06.06.22-.03,1.31.07,1.4-.05.02-.03.02-.06.03-.09l-.06-12.97c.17-1.52.94-2.99,2.2-3.86.41-.28.88-.5,1.31-.77.02,0,.04,0,.06,0,.57-.19,1.15-.32,1.75-.42h28.67c.13-.03.27.05.38.06Z"/>
</svg>