<svg width="1920" height="1080" viewBox="0 0 1920 1080" fill="none" xmlns="http://www.w3.org/2000/svg">
<g clip-path="url(#clip0_2030_2)">
<rect width="1920" height="1080" fill="#C7D8FF"/>
<path d="M1198 548.5C1198 990.051 840.052 1348 398.5 1348C-43.051 1348 -401 990.051 -401 548.5C-401 106.949 -43.051 -251 398.5 -251C840.052 -251 1198 106.949 1198 548.5Z" fill="white"/>
<mask id="mask0_2030_2" style="mask-type:luminance" maskUnits="userSpaceOnUse" x="1029" y="0" width="892" height="1080">
<path d="M1192.34 0L1029.54 1080H1920.04V0H1192.34Z" fill="white"/>
</mask>
<g mask="url(#mask0_2030_2)">
<path d="M1976.91 311.718H1684.84C1672.89 311.718 1662.32 319.457 1658.72 330.845L1635.07 433.896C1631.47 445.284 1620.9 453.023 1608.95 453.023H1453.56L1572.77 -33.7826" stroke="#C4C6C6" stroke-width="3"/>
<path d="M1873.52 260.562H1314.89C1302.61 260.562 1293.5 249.172 1296.19 237.188L1357.14 -33.7835" stroke="#C4C6C6" stroke-width="3"/>
<path d="M1937.1 378.727H1223.39C1214.25 378.727 1207.16 370.746 1208.23 361.666L1282.21 -33.7824" stroke="#C4C6C6" stroke-width="3"/>
<path d="M1548.03 1152.91L1576.62 986.541C1580.21 969.507 1567.22 953.484 1549.81 953.484H1186.53C1179.99 953.484 1174.35 958.086 1173.05 964.492L1137.14 1140.37" stroke="#C4C6C6" stroke-width="3"/>
<path d="M2008.55 1014.98H1162.74" stroke="#C4C6C6" stroke-width="3"/>
<path d="M1328.16 1142.6L1381.82 883.16C1383.09 873.44 1375.52 864.822 1365.72 864.822H1061.99" stroke="#C4C6C6" stroke-width="3"/>
<path d="M1253.74 1147.12L1300.64 925.829C1301.55 918.143 1308.07 912.353 1315.81 912.353H1999.1" stroke="#C4C6C6" stroke-width="3"/>
</g>
<path d="M1029.19 320.844H1439.34C1452.98 320.844 1465.06 312.004 1469.18 298.995L1506.47 181.274C1510.59 168.264 1522.66 159.424 1536.31 159.424H1651.66C1671.55 159.424 1686.39 177.728 1682.29 197.186L1543.8 853.715C1539.7 873.174 1554.54 891.477 1574.43 891.477H1920.04" stroke="white" stroke-width="3"/>
<path d="M1050.39 821.227H1920.04" stroke="#0041C9" stroke-width="3"/>
<path d="M1547.73 766.277C1543.35 766.277 1539.8 762.726 1539.8 758.346C1539.8 753.966 1543.35 750.415 1547.73 750.415C1552.11 750.415 1555.66 753.966 1555.66 758.346C1555.66 762.726 1552.11 766.277 1547.73 766.277ZM1547.73 736.596C1534.03 736.596 1522.91 747.707 1522.91 761.414C1522.91 775.12 1547.73 803.406 1547.73 803.406C1547.73 803.406 1572.55 775.12 1572.55 761.414C1572.55 747.707 1561.44 736.596 1547.73 736.596Z" fill="#0041C9"/>
<path d="M1234.08 379.277H1822.5C1833.69 379.277 1842.34 389.122 1840.89 400.225L1766.33 971.817C1764.88 982.92 1773.52 992.766 1784.72 992.766H1920.04" stroke="#55D800" stroke-width="3"/>
<path d="M1785.66 329.88C1781.28 329.88 1777.73 326.329 1777.73 321.949C1777.73 317.569 1781.28 314.018 1785.66 314.018C1790.04 314.018 1793.59 317.569 1793.59 321.949C1793.59 326.329 1790.04 329.88 1785.66 329.88ZM1785.66 300.199C1771.95 300.199 1760.84 311.31 1760.84 325.017C1760.84 338.723 1785.66 367.008 1785.66 367.008C1785.66 367.008 1810.48 338.723 1810.48 325.017C1810.48 311.31 1799.36 300.199 1785.66 300.199Z" fill="#55D800"/>
<g clip-path="url(#clip1_2030_2)">
<path d="M1161.45 244.297H1920.78C1931.22 244.297 1939.33 253.414 1938.1 263.786L1859.06 923.074C1858.03 931.854 1850.58 938.469 1841.74 938.469H790.123" stroke="#FF5DD7" stroke-width="3"/>
<path d="M1486.51 182.817C1482.13 182.817 1478.57 179.266 1478.57 174.886C1478.57 170.506 1482.13 166.955 1486.51 166.955C1490.89 166.955 1494.44 170.506 1494.44 174.886C1494.44 179.266 1490.89 182.817 1486.51 182.817ZM1486.51 153.136C1472.8 153.136 1461.69 164.247 1461.69 177.954C1461.69 191.66 1486.51 219.945 1486.51 219.945C1486.51 219.945 1511.32 191.66 1511.32 177.954C1511.32 164.247 1500.21 153.136 1486.51 153.136Z" fill="#FF5DD7"/>
<path d="M1269.08 880.06C1264.7 880.06 1261.15 876.509 1261.15 872.129C1261.15 867.749 1264.7 864.198 1269.08 864.198C1273.46 864.198 1277.01 867.749 1277.01 872.129C1277.01 876.509 1273.46 880.06 1269.08 880.06ZM1269.08 850.379C1255.38 850.379 1244.26 861.49 1244.26 875.197C1244.26 888.903 1269.08 917.188 1269.08 917.188C1269.08 917.188 1293.9 888.903 1293.9 875.197C1293.9 861.49 1282.79 850.379 1269.08 850.379Z" fill="#FF5DD7"/>
</g>
<path d="M1494.2 244.3C1494.2 240.047 1490.76 236.6 1486.5 236.6C1482.25 236.6 1478.8 240.047 1478.8 244.3C1478.8 248.553 1482.25 252 1486.5 252C1490.76 252 1494.2 248.553 1494.2 244.3Z" fill="white"/>
<path d="M1494.2 244.3C1494.2 240.047 1490.76 236.6 1486.5 236.6C1482.25 236.6 1478.8 240.047 1478.8 244.3C1478.8 248.553 1482.25 252 1486.5 252C1490.76 252 1494.2 248.553 1494.2 244.3Z" stroke="#FF5DD7" stroke-width="3"/>
<path d="M1678.99 244.3C1678.99 240.047 1675.55 236.6 1671.29 236.6C1667.04 236.6 1663.59 240.047 1663.59 244.3C1663.59 248.553 1667.04 252 1671.29 252C1675.55 252 1678.99 248.553 1678.99 244.3Z" fill="white"/>
<path d="M1678.99 244.3C1678.99 240.047 1675.55 236.6 1671.29 236.6C1667.04 236.6 1663.59 240.047 1663.59 244.3C1663.59 248.553 1667.04 252 1671.29 252C1675.55 252 1678.99 248.553 1678.99 244.3Z" stroke="#FF5DD7" stroke-width="3"/>
<path d="M1879.14 821.222C1879.14 816.969 1875.69 813.522 1871.44 813.522C1867.19 813.522 1863.74 816.969 1863.74 821.222C1863.74 825.475 1867.19 828.922 1871.44 828.922C1875.69 828.922 1879.14 825.475 1879.14 821.222Z" fill="white"/>
<path d="M1879.14 821.222C1879.14 816.969 1875.69 813.522 1871.44 813.522C1867.19 813.522 1863.74 816.969 1863.74 821.222C1863.74 825.475 1867.19 828.922 1871.44 828.922C1875.69 828.922 1879.14 825.475 1879.14 821.222Z" stroke="#FF5DD7" stroke-width="3"/>
<path d="M1871.44 891.48C1871.44 887.227 1867.99 883.78 1863.74 883.78C1859.49 883.78 1856.04 887.227 1856.04 891.48C1856.04 895.733 1859.49 899.18 1863.74 899.18C1867.99 899.18 1871.44 895.733 1871.44 891.48Z" fill="white"/>
<path d="M1871.44 891.48C1871.44 887.227 1867.99 883.78 1863.74 883.78C1859.49 883.78 1856.04 887.227 1856.04 891.48C1856.04 895.733 1859.49 899.18 1863.74 899.18C1867.99 899.18 1871.44 895.733 1871.44 891.48Z" stroke="#FF5DD7" stroke-width="3"/>
<path d="M1777.26 938.472C1777.26 934.219 1773.82 930.772 1769.56 930.772C1765.31 930.772 1761.86 934.219 1761.86 938.472C1761.86 942.725 1765.31 946.172 1769.56 946.172C1773.82 946.172 1777.26 942.725 1777.26 938.472Z" fill="white"/>
<path d="M1777.26 938.472C1777.26 934.219 1773.82 930.772 1769.56 930.772C1765.31 930.772 1761.86 934.219 1761.86 938.472C1761.86 942.725 1765.31 946.172 1769.56 946.172C1773.82 946.172 1777.26 942.725 1777.26 938.472Z" stroke="#FF5DD7" stroke-width="3"/>
<path d="M1448.44 938.472C1448.44 934.219 1444.99 930.772 1440.74 930.772C1436.49 930.772 1433.04 934.219 1433.04 938.472C1433.04 942.725 1436.49 946.172 1440.74 946.172C1444.99 946.172 1448.44 942.725 1448.44 938.472Z" fill="white"/>
<path d="M1448.44 938.472C1448.44 934.219 1444.99 930.772 1440.74 930.772C1436.49 930.772 1433.04 934.219 1433.04 938.472C1433.04 942.725 1436.49 946.172 1440.74 946.172C1444.99 946.172 1448.44 942.725 1448.44 938.472Z" stroke="#FF5DD7" stroke-width="3"/>
<path d="M1276.78 938.472C1276.78 934.219 1273.34 930.772 1269.08 930.772C1264.83 930.772 1261.38 934.219 1261.38 938.472C1261.38 942.725 1264.83 946.172 1269.08 946.172C1273.34 946.172 1276.78 942.725 1276.78 938.472Z" fill="white"/>
<path d="M1276.78 938.472C1276.78 934.219 1273.34 930.772 1269.08 930.772C1264.83 930.772 1261.38 934.219 1261.38 938.472C1261.38 942.725 1264.83 946.172 1269.08 946.172C1273.34 946.172 1276.78 942.725 1276.78 938.472Z" stroke="#FF5DD7" stroke-width="3"/>
<path d="M1127.85 821.222C1127.85 816.969 1124.4 813.522 1120.15 813.522C1115.9 813.522 1112.45 816.969 1112.45 821.222C1112.45 825.475 1115.9 828.922 1120.15 828.922C1124.4 828.922 1127.85 825.475 1127.85 821.222Z" fill="white"/>
<path d="M1127.85 821.222C1127.85 816.969 1124.4 813.522 1120.15 813.522C1115.9 813.522 1112.45 816.969 1112.45 821.222C1112.45 825.475 1115.9 828.922 1120.15 828.922C1124.4 828.922 1127.85 825.475 1127.85 821.222Z" stroke="#0041C9" stroke-width="3"/>
<path d="M1557.9 821.222C1557.9 816.969 1554.45 813.522 1550.2 813.522C1545.94 813.522 1542.5 816.969 1542.5 821.222C1542.5 825.475 1545.94 828.922 1550.2 828.922C1554.45 828.922 1557.9 825.475 1557.9 821.222Z" fill="white"/>
<path d="M1557.9 821.222C1557.9 816.969 1554.45 813.522 1550.2 813.522C1545.94 813.522 1542.5 816.969 1542.5 821.222C1542.5 825.475 1545.94 828.922 1550.2 828.922C1554.45 828.922 1557.9 825.475 1557.9 821.222Z" stroke="#0041C9" stroke-width="3"/>
<path d="M1792.67 821.222C1792.67 816.969 1789.22 813.522 1784.97 813.522C1780.71 813.522 1777.27 816.969 1777.27 821.222C1777.27 825.475 1780.71 828.922 1784.97 828.922C1789.22 828.922 1792.67 825.475 1792.67 821.222Z" fill="white"/>
<path d="M1792.67 821.222C1792.67 816.969 1789.22 813.522 1784.97 813.522C1780.71 813.522 1777.27 816.969 1777.27 821.222C1777.27 825.475 1780.71 828.922 1784.97 828.922C1789.22 828.922 1792.67 825.475 1792.67 821.222Z" stroke="#0041C9" stroke-width="3"/>
<path d="M1650.92 379.284C1650.92 375.031 1647.47 371.584 1643.22 371.584C1638.96 371.584 1635.52 375.031 1635.52 379.284C1635.52 383.537 1638.96 386.984 1643.22 386.984C1647.47 386.984 1650.92 383.537 1650.92 379.284Z" fill="white"/>
<path d="M1650.92 379.284C1650.92 375.031 1647.47 371.584 1643.22 371.584C1638.96 371.584 1635.52 375.031 1635.52 379.284C1635.52 383.537 1638.96 386.984 1643.22 386.984C1647.47 386.984 1650.92 383.537 1650.92 379.284Z" stroke="#55D800" stroke-width="3"/>
<path d="M1784.96 891.48C1784.96 887.227 1781.51 883.78 1777.26 883.78C1773.01 883.78 1769.56 887.227 1769.56 891.48C1769.56 895.733 1773.01 899.18 1777.26 899.18C1781.51 899.18 1784.96 895.733 1784.96 891.48Z" fill="white"/>
<path d="M1784.96 891.48C1784.96 887.227 1781.51 883.78 1777.26 883.78C1773.01 883.78 1769.56 887.227 1769.56 891.48C1769.56 895.733 1773.01 899.18 1777.26 899.18C1781.51 899.18 1784.96 895.733 1784.96 891.48Z" stroke="#55D800" stroke-width="3"/>
<path d="M1461.63 379.284C1461.63 375.031 1458.18 371.584 1453.93 371.584C1449.67 371.584 1446.23 375.031 1446.23 379.284C1446.23 383.537 1449.67 386.984 1453.93 386.984C1458.18 386.984 1461.63 383.537 1461.63 379.284Z" fill="white"/>
<path d="M1461.63 379.284C1461.63 375.031 1458.18 371.584 1453.93 371.584C1449.67 371.584 1446.23 375.031 1446.23 379.284C1446.23 383.537 1449.67 386.984 1453.93 386.984C1458.18 386.984 1461.63 383.537 1461.63 379.284Z" stroke="#55D800" stroke-width="3"/>
<path d="M1287.16 379.284C1287.16 375.031 1283.71 371.584 1279.46 371.584C1275.21 371.584 1271.76 375.031 1271.76 379.284C1271.76 383.537 1275.21 386.984 1279.46 386.984C1283.71 386.984 1287.16 383.537 1287.16 379.284Z" fill="white"/>
<path d="M1287.16 379.284C1287.16 375.031 1283.71 371.584 1279.46 371.584C1275.21 371.584 1271.76 375.031 1271.76 379.284C1271.76 383.537 1275.21 386.984 1279.46 386.984C1283.71 386.984 1287.16 383.537 1287.16 379.284Z" stroke="#55D800" stroke-width="3"/>
<path d="M858.734 321.391H1028.93" stroke="#0041C9" stroke-width="3"/>
</g>
<defs>
<clipPath id="clip0_2030_2">
<rect width="1920" height="1080" fill="white"/>
</clipPath>
<clipPath id="clip1_2030_2">
<rect width="1175.7" height="901.4" fill="white" transform="translate(744.34 70.6016)"/>
</clipPath>
</defs>
</svg>
