<svg width="23" height="23" viewBox="0 0 23 23" fill="none" xmlns="http://www.w3.org/2000/svg">
<path d="M11.054 1.83769C5.865 1.83769 1.642 6.06069 1.642 11.2507C1.642 16.4407 5.865 20.6637 11.054 20.6637C16.245 20.6637 20.467 16.4407 20.467 11.2507C20.467 6.06069 16.245 1.83769 11.054 1.83769ZM11.054 22.3047C4.959 22.3047 0 17.3457 0 11.2507C0 5.15569 4.959 0.195688 11.054 0.195688C17.149 0.195688 22.109 5.15569 22.109 11.2507C22.109 17.3457 17.149 22.3047 11.054 22.3047Z" fill="#FF5DD7"/>
<path d="M11.0514 8.33669C5.30544 8.33669 1.63944 10.0627 1.63944 11.2507C1.63944 12.4387 5.30544 14.1637 11.0514 14.1637C16.7984 14.1637 20.4644 12.4387 20.4644 11.2507C20.4644 10.0627 16.7984 8.33669 11.0514 8.33669ZM11.0514 15.8047C5.55944 15.8047 0.148438 14.2407 0.148438 11.2507C0.148438 5.26869 21.9884 5.26969 21.9884 11.2507C21.9884 14.2407 16.5454 15.8047 11.0514 15.8047Z" fill="#FF5DD7"/>
<path d="M11.8725 21.4844H10.2305V1.01736H11.8725V21.4844Z" fill="#FF5DD7"/>
</svg>
