<svg width="23" height="23" viewBox="0 0 23 23" fill="none" xmlns="http://www.w3.org/2000/svg">
<path d="M18.0807 6.43962C18.1287 7.07962 18.5887 7.08762 17.1427 10.6026C15.6977 14.1196 12.0557 16.2906 11.8217 16.4606C9.64169 18.0556 7.35069 18.4466 5.36469 16.5506C4.73769 15.9506 4.78869 14.4886 5.57869 14.1746L8.28869 12.5366C8.56269 12.6796 9.36469 13.4206 9.93669 14.0176C10.1037 14.1946 10.2907 14.3796 10.6377 14.1836C10.9857 13.9856 12.1317 13.3066 13.0657 12.2876C14.2627 10.9786 14.6477 9.86162 14.8267 9.51762C15.0057 9.17162 14.9807 8.96963 14.7507 8.76163C14.5257 8.55363 13.1377 7.38462 12.7967 7.14662L14.8377 3.82763C15.7207 3.31963 17.9477 4.60262 18.0807 6.43962ZM11.1347 0.0256252C5.02569 0.0256252 0.0546875 4.95862 0.0546875 11.0206C0.0546875 13.4256 0.839687 15.6546 2.16569 17.4666L1.40069 22.0156L5.69569 20.3806C7.44569 21.5286 8.88369 22.0156 11.1347 22.0156C17.2447 22.0156 22.2147 17.0826 22.2147 11.0206C22.2147 4.95862 17.2447 0.0256252 11.1347 0.0256252Z" fill="#FF5DD7"/>
</svg>
