<svg width="24" height="19" viewBox="0 0 24 19" fill="none" xmlns="http://www.w3.org/2000/svg">
<path d="M23.8711 2.15844C23.8711 2.15844 20.9501 1.63144 19.8921 1.84144C19.0441 0.936438 17.8381 0.373438 16.5031 0.373438C13.9361 0.373438 11.8631 2.15844 11.8561 5.01844C11.8561 5.38044 11.8981 5.73744 11.9771 6.07544C8.11712 5.88544 4.31012 4.12044 2.02012 1.30944C1.62012 1.99844 1.77612 2.70844 1.77612 3.55944C1.77612 5.17144 4.64512 7.10544 5.89112 7.93944C5.13112 7.91444 2.36512 7.19144 1.73712 6.84344V6.90544C1.73712 9.15344 5.09312 11.1224 7.21712 11.5464C6.53712 11.7334 2.61312 12.1554 1.91412 12.0234C2.50512 13.8684 6.19312 14.9004 8.22512 14.9404C6.24012 16.4974 3.25213 16.9684 0.828125 16.6844C2.88313 18.0034 5.32512 18.7734 7.94812 18.7734C16.4901 18.7734 21.1621 11.6944 21.1621 5.55744C21.1621 5.35644 21.1591 5.15644 21.1481 4.95744C22.0561 4.30044 23.2491 3.09144 23.8711 2.15844Z" fill="#FF5DD7"/>
</svg>
