<svg width="1198" height="378" viewBox="0 0 1198 378" fill="none" xmlns="http://www.w3.org/2000/svg">
<g clip-path="url(#clip0_2033_2)">
<path d="M1017.8 343.859H112.535C91.843 343.859 75.995 325.454 79.069 304.991L108.255 110.671C115.175 64.5994 154.755 30.5204 201.344 30.5204H1017.8C1036.49 30.5204 1051.64 45.6714 1051.64 64.3614V310.017C1051.64 328.708 1036.49 343.859 1017.8 343.859Z" fill="#DAE7E8"/>
<path d="M1293.26 304.991L1264.07 110.671C1257.15 64.5994 1217.57 30.5204 1170.98 30.5204H1167.01H624.566H445.932C399.343 30.5204 359.762 64.5994 352.843 110.671L323.656 304.991C320.583 325.454 336.43 343.859 357.123 343.859H624.566H1210.45H1259.79C1280.48 343.859 1296.33 325.454 1293.26 304.991Z" fill="white"/>
<path d="M102.511 304.991C99.4381 325.454 115.285 343.859 135.977 343.859H304.28C283.587 343.859 267.74 325.454 270.813 304.991L276.49 267.195H108.188L102.511 304.991Z" fill="#0041C9"/>
<path d="M102.511 304.991C99.4381 325.454 115.285 343.859 135.977 343.859H304.28C283.587 343.859 267.74 325.454 270.813 304.991L276.49 267.195H108.188L102.511 304.991Z" fill="#0041C9"/>
<path d="M231.874 304.991L237.551 267.195H140.193L134.517 304.991C131.443 325.454 147.29 343.859 167.983 343.859H265.34C244.648 343.859 228.8 325.454 231.874 304.991Z" fill="#204353"/>
<path d="M221.657 290.844H156.52C153.511 290.844 151.072 288.405 151.072 285.396C151.072 282.387 153.511 279.948 156.52 279.948H221.657C224.666 279.948 227.105 282.387 227.105 285.396C227.105 288.405 224.666 290.844 221.657 290.844Z" fill="white"/>
<path d="M1154.03 62.8242H792.337H777.858H453.727C423.118 62.8242 397.065 84.7202 391.535 114.617H1216.22C1210.69 84.7202 1184.64 62.8242 1154.03 62.8242Z" fill="#102D38"/>
<path d="M1216.64 116.73C1216.53 116.013 1216.35 115.324 1216.22 114.616H391.536C391.405 115.324 391.227 116.013 391.119 116.73L378.602 200.07H763.036H807.161H1229.16L1216.64 116.73Z" fill="#204353"/>
<path d="M650.759 324.583C650.734 324.416 650.693 324.256 650.662 324.091C649.376 317.14 643.318 312.048 636.201 312.048H552.099H548.733H473.365C466.248 312.048 460.19 317.14 458.904 324.091C458.874 324.256 458.832 324.416 458.807 324.583L455.897 343.961H545.286H555.546H653.67L650.759 324.583Z" fill="#B5BCBC"/>
<path d="M1163.12 324.583C1163.1 324.416 1163.05 324.256 1163.02 324.091C1161.74 317.14 1155.68 312.048 1148.56 312.048H1064.46H1061.09H985.727C978.61 312.048 972.552 317.14 971.266 324.091C971.236 324.256 971.194 324.416 971.169 324.583L968.259 343.961H1057.65H1067.91H1166.03L1163.12 324.583Z" fill="#B5BCBC"/>
<path d="M1288.36 272.383H328.389L339.251 200.069H1277.5L1288.36 272.383Z" fill="#0041C9"/>
<path d="M726.439 62.8218V272.383" stroke="white" stroke-width="3"/>
<path d="M726.439 272.387V343.859" stroke="#204353" stroke-width="3"/>
<path d="M805.287 62.8218V272.383" stroke="white" stroke-width="3"/>
<path d="M805.287 272.387V343.859" stroke="#204353" stroke-width="3"/>
<path d="M884.136 62.8218V272.383" stroke="white" stroke-width="3"/>
<path d="M884.136 272.387V343.859" stroke="#204353" stroke-width="3"/>
<path d="M402.793 300.023H384.526C381.254 300.023 378.602 297.37 378.602 294.099C378.602 290.826 381.254 288.174 384.526 288.174H402.793C406.065 288.174 408.717 290.826 408.717 294.099C408.717 297.37 406.065 300.023 402.793 300.023Z" fill="#55D800"/>
<path d="M108.188 267.195H276.49" stroke="white" stroke-width="3"/>
<path d="M393.089 30.5172H224.786C178.198 30.5172 138.618 64.5962 131.698 110.668L131.104 114.617H299.406L300 110.668C306.92 64.5962 346.499 30.5172 393.089 30.5172Z" fill="#102D38"/>
<path d="M108.188 267.195H276.49L299.407 114.62H131.104L108.188 267.195Z" fill="#204353"/>
<path d="M266.132 76.4219H200.995C197.986 76.4219 195.547 73.9829 195.547 70.9739C195.547 67.9649 197.986 65.5259 200.995 65.5259H266.132C269.141 65.5259 271.58 67.9649 271.58 70.9739C271.58 73.9829 269.141 76.4219 266.132 76.4219Z" fill="#55D800"/>
<path d="M384.526 303.706C387.798 303.706 390.45 306.359 390.45 309.63C390.45 312.903 387.798 315.555 384.526 315.555C381.254 315.555 378.602 312.903 378.602 309.63C378.602 306.359 381.254 303.706 384.526 303.706Z" fill="#FF5DD7"/>
</g>
<path d="M0 343.969H1198.04" stroke="#204353" stroke-width="3"/>
<defs>
<clipPath id="clip0_2033_2">
<rect width="1129.9" height="376.9" fill="white" transform="translate(68.1406 0.296875)"/>
</clipPath>
</defs>
</svg>
