<svg width="22" height="23" viewBox="0 0 22 23" fill="none" xmlns="http://www.w3.org/2000/svg">
<path d="M13.5354 7.35789C8.9204 5.08889 4.3514 9.65789 6.6194 14.2729C7.0304 15.1099 7.7254 15.8059 8.5614 16.2199C13.1824 18.5099 17.7704 13.9229 15.4824 9.30089C15.0694 8.46489 14.3724 7.76989 13.5354 7.35789Z" fill="#FF5DD7"/>
<path d="M18.2067 5.70588C17.5177 5.70588 16.9587 5.14688 16.9587 4.45788C16.9587 3.76788 17.5177 3.20888 18.2067 3.20888C18.8967 3.20888 19.4557 3.76788 19.4557 4.45788C19.4557 5.14688 18.8967 5.70588 18.2067 5.70588ZM17.0937 15.3179C16.5457 16.3939 15.6507 17.2879 14.5747 17.8369C8.15969 21.1049 1.74669 14.6949 5.01369 8.27788C5.56269 7.20188 6.45669 6.30688 7.53369 5.75788C13.9507 2.48688 20.3637 8.90288 17.0937 15.3179ZM19.1947 0.922874H2.91669C1.40569 0.922874 0.179688 2.14788 0.179688 3.65988V19.9329C0.179688 21.4399 1.41269 22.6719 2.91969 22.6719H19.1927C20.7047 22.6719 21.9297 21.4469 21.9297 19.9349V3.65788C21.9297 2.14688 20.7047 0.922874 19.1947 0.922874Z" fill="#FF5DD7"/>
</svg>
