<svg width="34" height="34" viewBox="0 0 34 34" fill="none" xmlns="http://www.w3.org/2000/svg">
<g clip-path="url(#clip0_2060_28)">
<path d="M22.9921 4.8752C21.458 1.94512 19.5092 0.203655 17.4222 -0.00366211V9.05609H24.5954C24.1807 7.52195 23.6901 6.13292 22.9921 4.8752Z" fill="#303A31"/>
<path d="M9.33726 24.7288H16.5864V17.4105H8.36287C8.43197 19.9881 8.7084 22.4966 9.33726 24.7288Z" fill="#303A31"/>
<path d="M11.0081 4.8752C10.3792 6.12601 9.8264 7.52195 9.40485 9.05609H16.578V-0.00366211C14.491 0.272761 12.5353 1.94512 11.0012 4.8752H11.0081Z" fill="#303A31"/>
<path d="M8.36287 16.583H16.5173V9.96271H9.12994C8.71531 11.9806 8.43197 14.2127 8.36287 16.583Z" fill="#303A31"/>
<path d="M11.0098 29.1185C12.544 32.0417 14.4928 33.7832 16.5867 33.9974V25.6356H9.6208C9.96633 26.8864 10.457 28.0751 11.0167 29.1185H11.0098Z" fill="#303A31"/>
<path d="M8.29268 9.96162H1.87967C1.81057 9.96162 1.67236 9.96162 1.60325 9.89252C0.628862 11.9104 0.0691057 14.2116 0 16.5819H7.4565C7.52561 14.2807 7.80203 11.9864 8.29268 9.96162Z" fill="#303A31"/>
<path d="M10.2428 4.45365C11.2171 2.64308 12.3297 1.24714 13.5184 0.341858C8.50129 1.39226 4.3204 4.66787 2.01918 9.05609H8.50129C8.91593 7.38373 9.47568 5.84958 10.2428 4.46056V4.45365Z" fill="#303A31"/>
<path d="M7.52561 17.4185H0C0.0691057 20.0653 0.767073 22.5047 1.87967 24.7368H8.43089C7.87114 22.5047 7.52561 19.9962 7.52561 17.4185Z" fill="#303A31"/>
<path d="M10.2423 29.5401C9.61346 28.3584 9.12972 27.0316 8.70818 25.6356H2.44029C4.81062 29.6783 8.8533 32.6015 13.587 33.645C12.2602 32.7397 11.1476 31.3438 10.2423 29.5332V29.5401Z" fill="#303A31"/>
<path d="M23.759 29.5386C22.7846 31.3492 21.672 32.7451 20.4834 33.6504C25.224 32.676 29.1907 29.6768 31.6301 25.6411H25.3622C24.9407 27.037 24.3878 28.3569 23.759 29.5455V29.5386Z" fill="#303A31"/>
<path d="M23.759 4.45365C24.4569 5.84958 25.0858 7.37682 25.5004 9.04918H31.9825C29.6813 4.66096 25.4313 1.38535 20.4834 0.341858C21.7342 1.24714 22.8537 2.64308 23.759 4.45365Z" fill="#303A31"/>
<path d="M26.475 16.5819H33.9315C33.8624 14.2116 33.3027 11.9173 32.3283 9.89252C32.2592 9.96162 32.1901 9.96162 32.0519 9.96162H25.7149C26.2055 11.9795 26.4819 14.2807 26.4819 16.5819H26.475Z" fill="#303A31"/>
<path d="M24.8706 9.96271H17.4141V16.583H25.5686C25.5686 14.2127 25.2921 11.9875 24.8706 9.96271Z" fill="#303A31"/>
<path d="M25.6377 17.4185H17.4141V24.7368H24.6633C25.2921 22.5047 25.5686 19.9962 25.6377 17.4185Z" fill="#303A31"/>
<path d="M25.5691 24.7288H32.1203C33.2329 22.4966 33.9309 20.0641 34 17.4105H26.4744C26.4744 19.9881 26.1289 22.4966 25.5691 24.7288Z" fill="#303A31"/>
<path d="M22.9921 29.1185C23.5519 28.0751 24.0356 26.8864 24.3881 25.6356H17.4222V33.9974C19.5092 33.721 21.4649 32.0486 22.999 29.1185H22.9921Z" fill="#303A31"/>
</g>
<defs>
<clipPath id="clip0_2060_28">
<rect width="34" height="34" fill="white"/>
</clipPath>
</defs>
</svg>
