<svg width="31" height="31" viewBox="0 0 31 31" fill="none" xmlns="http://www.w3.org/2000/svg">
<g clip-path="url(#clip0_2060_47)">
<path d="M29.1254 20.363C27.8782 19.1084 26.2797 18.488 24.5433 18.488C22.8069 18.488 21.1394 19.1842 19.8922 20.4319C19.7544 20.5698 19.5477 20.7766 19.403 20.9903C19.3341 21.0592 19.1963 21.1282 19.0585 21.1282C18.9207 21.1282 18.8518 21.0592 18.714 20.9903L10.032 12.3045C9.96314 12.2356 9.89424 12.0977 9.89424 11.9598C9.89424 11.822 9.96314 11.753 10.032 11.6152C10.2388 11.4773 10.3766 11.2705 10.5902 11.1257C13.1603 8.55445 13.1603 4.45283 10.6591 1.88156C9.41191 0.633838 7.81333 0.00653076 6.07695 0.00653076C4.34056 0.00653076 2.65241 0.695879 1.40524 1.9436C-0.820365 4.1702 0.0133761 7.71345 1.05383 10.2847C2.85912 14.6621 6.89002 19.8736 11.7547 24.113C16.7571 28.4904 21.7595 30.9927 25.3012 30.9927C26.8309 30.9927 28.0781 30.5033 29.0496 29.6003C30.2968 28.3456 30.9927 26.7532 30.9927 24.9472C30.9927 23.1411 30.2968 21.5418 29.1185 20.363H29.1254Z" fill="#303A31"/>
</g>
<defs>
<clipPath id="clip0_2060_47">
<rect width="31" height="31" fill="white"/>
</clipPath>
</defs>
</svg>
