<svg width="80" height="80" viewBox="0 0 80 80" fill="none" xmlns="http://www.w3.org/2000/svg">
<circle cx="40" cy="40" r="40" fill="#547FFF"/>
<g clip-path="url(#clip0_29325_114727)">
<g clip-path="url(#clip1_29325_114727)">
<path d="M46.3798 42.577H41.6126V47.3513C41.6126 48.1458 40.9728 48.7856 40.1782 48.7856C39.3837 48.7856 38.7439 48.1458 38.7439 47.3513V42.577H33.9767C33.1821 42.577 32.5423 41.9372 32.5423 41.1427C32.5423 40.3481 33.1821 39.7083 33.9767 39.7083H38.7439V34.9341C38.7439 34.1395 39.3837 33.4997 40.1782 33.4997C40.9728 33.4997 41.6126 34.1395 41.6126 34.9341V39.7083H46.3798C47.1743 39.7083 47.8142 40.3481 47.8142 41.1427C47.8142 41.9372 47.1743 42.577 46.3798 42.577ZM54.3954 25.6599C50.8165 22.6364 45.1071 23.6208 40.1782 27.9872C35.2493 23.6278 29.54 22.6434 25.9611 25.6599C21.4892 29.4356 22.0657 37.9575 27.2759 45.0661C30.7282 49.77 38.8353 57.638 39.1798 57.9614C39.9673 58.6927 40.8814 58.2708 41.1697 57.9614C41.4931 57.6099 49.6212 49.77 53.0736 45.0661C58.2907 37.9645 58.8673 29.4356 54.3954 25.6599Z" fill="white"/>
</g>
</g>
<defs>
<clipPath id="clip0_29325_114727">
<rect width="36" height="36" fill="white" transform="translate(22.5 22.5)"/>
</clipPath>
<clipPath id="clip1_29325_114727">
<rect width="36" height="36" fill="white" transform="translate(22.1797 23.1406)"/>
</clipPath>
</defs>
</svg>
