<svg width="80" height="80" viewBox="0 0 80 80" fill="none" xmlns="http://www.w3.org/2000/svg">
<circle cx="40" cy="40" r="40" fill="#547FFF"/>
<path d="M47.7938 24.7078C47.7938 23.9133 47.1539 23.2734 46.3594 23.2734H33.3445C32.55 23.2734 31.9102 23.9133 31.9102 24.7078V27.1758H47.7938V24.7078Z" fill="white"/>
<path d="M43.6805 47.4531H37.3242V57.7258H43.6805V47.4531Z" fill="white"/>
<path d="M56.2922 30.0547H24.7078C23.9133 30.0547 23.2734 30.6945 23.2734 31.4891V56.2953C23.2734 57.0898 23.9133 57.7297 24.7078 57.7297H34.4531V46.0227C34.4531 45.2281 35.093 44.5883 35.8875 44.5883H45.1125C45.907 44.5883 46.5469 45.2281 46.5469 46.0227V57.7297H56.2922C57.0867 57.7297 57.7266 57.0898 57.7266 56.2953V31.4891C57.7266 30.6945 57.0867 30.0547 56.2922 30.0547ZM43.432 38.4148H41.9344V39.9125C41.9344 40.707 41.2945 41.3469 40.5 41.3469C39.7055 41.3469 39.0656 40.707 39.0656 39.9125V38.4148H37.568C36.7734 38.4148 36.1336 37.775 36.1336 36.9805C36.1336 36.1859 36.7734 35.5461 37.568 35.5461H39.0656V34.0484C39.0656 33.2539 39.7055 32.6141 40.5 32.6141C41.2945 32.6141 41.9344 33.2539 41.9344 34.0484V35.5461H43.432C44.2266 35.5461 44.8664 36.1859 44.8664 36.9805C44.8664 37.775 44.2266 38.4148 43.432 38.4148Z" fill="white"/>
</svg>
