<svg width="80" height="80" viewBox="0 0 80 80" fill="none" xmlns="http://www.w3.org/2000/svg">
<circle cx="40" cy="40" r="40" fill="#547FFF"/>
<g clip-path="url(#clip0_29325_114702)">
<g clip-path="url(#clip1_29325_114702)">
<path d="M49.5383 46.9549L48.3219 40.5213C48.2656 40.2401 48.132 39.9799 47.9281 39.776L36.7133 28.6315C36.7133 28.6315 38.7523 27.169 37.4516 25.8752C36.1789 24.6026 34.6813 26.6135 34.6813 26.6135L26.2578 34.9948C25.6953 35.5502 25.6953 36.4573 26.2578 37.0127C26.5391 37.294 27.425 37.7791 28.2898 37.0127L28.9859 36.3237L40.2008 47.4752C40.3977 47.6721 40.6438 47.8057 40.9109 47.8619L47.1617 49.1979C47.4078 49.2612 48.4133 49.4791 49.0883 48.8112C49.5453 48.3401 49.707 47.7143 49.5383 46.9549Z" fill="white"/>
<path d="M56.8812 50.9466C56.0586 50.131 54.132 49.4771 51.1648 49.013C50.6516 48.9286 50.1242 49.1044 49.7516 49.4701C49.3859 49.8357 49.2101 50.363 49.2875 50.8763C49.7586 53.8294 50.4055 55.749 51.2281 56.5646C52.0086 57.338 53.0281 57.7247 54.0547 57.7247C55.0812 57.7247 56.1008 57.338 56.8812 56.5646C58.4351 55.0177 58.4351 52.4935 56.8812 50.9466Z" fill="white"/>
<path d="M31.5131 25.7335L30.1701 24.3976C28.6654 22.8999 26.2256 22.8999 24.7209 24.3905C23.2232 25.8812 23.2232 28.314 24.7209 29.8046L26.0639 31.1405L31.5131 25.7335Z" fill="white"/>
</g>
</g>
<defs>
<clipPath id="clip0_29325_114702">
<rect width="36" height="36" fill="white" transform="translate(22.5 22.5)"/>
</clipPath>
<clipPath id="clip1_29325_114702">
<rect width="36" height="36" fill="white" transform="translate(22.8203 22.5)"/>
</clipPath>
</defs>
</svg>
