<svg width="32" height="32" viewBox="0 0 32 32" fill="none" xmlns="http://www.w3.org/2000/svg">
<g clip-path="url(#clip0_2056_202)">
<path d="M30 12H8.50002C7.79683 10.3016 8.19208 11.2199 5.91383 6.09387C5.75333 5.73275 5.3952 5.5 5.00002 5.5H1.02827C0.489829 5.5 0.0265167 5.91381 0.00114169 6.45162C-0.0259208 7.02588 0.431642 7.5 1.00002 7.5H4.35014L6.00002 11.2123V13.6875C6.00002 13.8601 6.13995 14 6.31252 14H27.972C28.5106 14 28.9738 14.4141 28.9989 14.9521C29.0256 15.5264 28.5684 16 28 16H6.31252C6.13995 16 6.00002 16.1399 6.00002 16.3125V19.75C6.00002 20.3017 6.44714 20.7502 6.99883 20.75C7.44939 20.7499 7.73558 20.8249 8.00002 20.9518V26.1719C6.13045 25.509 4.14877 26.8257 4.00802 28.7787C3.88214 30.525 5.26039 31.9872 6.97752 31.9999C8.63995 32.0121 10 30.6085 10 28.946V25H28V26.172C26.1305 25.5091 24.1488 26.8258 24.008 28.7788C23.8821 30.5251 25.2604 31.9873 26.9775 31.9999C28.64 32.0122 30 30.6086 30 28.9461V20.9518C30.2645 20.8249 30.5506 20.7499 31.0012 20.75C31.5529 20.7502 32 20.3017 32 19.75V14C32 12.8954 31.1046 12 30 12ZM28 23H10V21.8988C10.289 21.9613 10.6176 22 11 22C12.2869 22 12.9763 21.5694 13.53 21.2231C13.9856 20.9381 14.2869 20.75 14.9994 20.75C15.7125 20.75 16.0138 20.9381 16.4694 21.2231C17.0231 21.5694 17.7125 22 18.9994 22C20.2863 22 20.9756 21.5694 21.5294 21.2231C21.985 20.9381 22.2863 20.75 22.9994 20.75C23.7125 20.75 24.0138 20.9381 24.4694 21.2231C25.0231 21.5694 25.7131 22 27 22C27.3824 22 27.711 21.9614 28 21.8988V23Z" fill="black"/>
<path d="M19.9988 2.05895V1.02826C19.9988 0.489762 19.585 0.0264491 19.0471 0.00113655C18.4728 -0.0258634 17.9988 0.431699 17.9988 1.00001V2.05895C14.057 2.52307 10.9316 5.69526 10.5406 9.6587C10.5225 9.84176 10.6682 10 10.8521 10H27.1455C27.3295 10 27.4751 9.8417 27.4571 9.6587C27.0661 5.6952 23.9406 2.52307 19.9988 2.05895Z" fill="black"/>
</g>
<defs>
<clipPath id="clip0_2056_202">
<rect width="32" height="32" fill="white"/>
</clipPath>
</defs>
</svg>
