<svg width="32" height="32" viewBox="0 0 32 32" fill="none" xmlns="http://www.w3.org/2000/svg">
<g clip-path="url(#clip0_2056_212)">
<path d="M22.5 1C22.5 0.447688 22.0523 0 21.5 0H10.5C9.94769 0 9.5 0.447688 9.5 1V4.6875C9.5 4.86006 9.63994 5 9.8125 5H22.1875C22.3601 5 22.5 4.86006 22.5 4.6875V1Z" fill="black"/>
<path d="M10.0527 13.5036H10.1899C10.8574 16.0886 13.2093 18.0036 15.9999 18.0036C18.7906 18.0036 21.1424 16.0886 21.8099 13.5036H21.9472C23.5954 13.5036 24.9979 12.1556 24.9999 10.5074C25.0011 9.59887 24.5966 8.78337 23.9579 8.23237C23.7708 8.07087 23.4816 8.18112 23.4443 8.4255C23.0934 10.7223 21.1054 12.5036 18.6937 12.5036C12.84 12.5036 12.842 12.5649 11.9831 12.3186C10.189 11.8035 8.83556 10.2786 8.55456 8.41862C8.51813 8.17731 8.22656 8.07306 8.04181 8.2325C7.40331 8.7835 6.99888 9.59894 7 10.5073C7.002 12.1556 8.4045 13.5036 10.0527 13.5036Z" fill="black"/>
<path d="M30.9719 29.9985H26.8637L25.6819 21.9785C25.3851 19.9605 24.2218 18.18 22.5199 17.0965C22.3881 17.0125 22.2146 17.0403 22.1137 17.1596C20.8464 18.6595 19.0484 19.6675 17.0464 19.9304C16.959 19.9419 16.8774 19.986 16.8281 20.0591C16.7566 20.165 16.6642 20.2577 16.555 20.3304L14.1392 21.9408C14.0522 21.9987 14 22.0963 14 22.2008V28.9985C14 29.5508 13.5523 29.9985 13 29.9985C12.4477 29.9985 12 29.5508 12 28.9985V21.4985C12 21.1641 12.1669 20.8516 12.445 20.6666L13.3367 20.0722C13.5499 19.9301 13.5108 19.6064 13.2701 19.519C11.9459 19.0383 10.7736 18.2154 9.87255 17.1432C9.77224 17.0238 9.59912 16.9958 9.4673 17.079C7.76555 18.1526 6.5698 19.9392 6.2743 22.0085L5.13249 29.9985H1.02805C0.489429 29.9985 0.0261793 30.4126 0.00111682 30.9506C-0.0256332 31.5249 0.431617 31.9985 0.999992 31.9985H31C31.5684 31.9985 32.0256 31.5249 31.9989 30.9506C31.9738 30.4126 31.5106 29.9985 30.9719 29.9985ZM16 28.4985C15.4475 28.4985 15 28.051 15 27.4985C15 26.946 15.4475 26.4985 16 26.4985C16.5525 26.4985 17 26.946 17 27.4985C17 28.051 16.5525 28.4985 16 28.4985ZM16 24.4985C15.4475 24.4985 15 24.051 15 23.4985C15 22.946 15.4475 22.4985 16 22.4985C16.5525 22.4985 17 22.946 17 23.4985C17 24.051 16.5525 24.4985 16 24.4985Z" fill="black"/>
<path d="M13.3062 10.5H18.6938C20.2436 10.5 21.5 9.24362 21.5 7.69375V7.3125C21.5 7.13994 21.3601 7 21.1875 7H10.8125C10.6399 7 10.5 7.13994 10.5 7.3125V7.69375C10.5 9.24362 11.7564 10.5 13.3062 10.5Z" fill="black"/>
</g>
<defs>
<clipPath id="clip0_2056_212">
<rect width="32" height="32" fill="white"/>
</clipPath>
</defs>
</svg>
