<svg width="32" height="32" viewBox="0 0 32 32" fill="none" xmlns="http://www.w3.org/2000/svg">
<path d="M31 22H1C0.447688 22 0 22.4477 0 23V27.5C0 28.0523 0.447688 28.5 1 28.5H3.5C3.815 28.5 4.11125 28.3519 4.3 28.1L5.5 26.5H26.5L27.7 28.1C27.8888 28.3519 28.185 28.5 28.5 28.5H31C31.5523 28.5 32 28.0523 32 27.5V23C32 22.4477 31.5523 22 31 22Z" fill="black"/>
<path d="M14 12H9C8.44769 12 8 12.4477 8 13V14.6875C8 14.8601 8.13994 15 8.3125 15H14.6875C14.8601 15 15 14.8601 15 14.6875V13C15 12.4477 14.5523 12 14 12Z" fill="black"/>
<path d="M23 12H18C17.4477 12 17 12.4477 17 13V14.6875C17 14.8601 17.1399 15 17.3125 15H23.6875C23.8601 15 24 14.8601 24 14.6875V13C24 12.4477 23.5523 12 23 12Z" fill="black"/>
<path d="M3 19V19.6875C3 19.8601 3.13994 20 3.3125 20H28.6875C28.8601 20 29 19.8601 29 19.6875V19C29 17.8954 28.1046 17 27 17H5C3.89544 17 3 17.8954 3 19Z" fill="black"/>
<path d="M31 14.6875V4.52805C31 3.98943 30.5859 3.52612 30.0478 3.50112C29.4736 3.47437 29 3.93162 29 4.49999V5.49999H3V4.52805C3 3.98943 2.58588 3.52618 2.04781 3.50112C1.47356 3.47437 1 3.93162 1 4.49999V14.6875C1 14.8601 1.13994 15 1.3125 15H5.6875C5.86006 15 6 14.8601 6 14.6875V13C6 11.3431 7.34312 9.99999 9 9.99999H14C14.681 9.99999 15.3094 10.2274 15.8129 10.6109C15.9233 10.6949 16.0767 10.6949 16.187 10.6109C16.6906 10.2274 17.319 9.99999 18 9.99999H23C24.6569 9.99999 26 11.3431 26 13V14.6875C26 14.8601 26.1399 15 26.3125 15H30.6875C30.8601 15 31 14.8601 31 14.6875Z" fill="black"/>
</svg>
